<svg xmlns="http://www.w3.org/2000/svg" width="277.255" height="280" viewBox="0 0 277.255 280">
  <defs>
    <style>
      .cls-1 {
        fill: none;
      }

      .cls-12, .cls-18, .cls-2, .cls-3, .cls-6 {
        fill: #277aa1;
      }

      .cls-2 {
        opacity: 0.27;
      }

      .cls-18, .cls-3, .cls-4, .cls-5, .cls-6, .cls-7, .cls-8 {
        fill-rule: evenodd;
      }

      .cls-3 {
        opacity: 0.05;
      }

      .cls-15, .cls-4 {
        fill: #e0e0e0;
      }

      .cls-10, .cls-5, .cls-7 {
        fill: #455a64;
      }

      .cls-6 {
        opacity: 0.08;
      }

      .cls-7 {
        opacity: 0.13;
      }

      .cls-8 {
        fill: #f5f5f5;
      }

      .cls-9 {
        fill: #ebebeb;
      }

      .cls-11 {
        fill: #263238;
      }

      .cls-13 {
        fill: #fff;
      }

      .cls-14 {
        opacity: 0.3;
      }

      .cls-16 {
        opacity: 0.8;
      }

      .cls-17 {
        opacity: 0.6;
      }

      .cls-19 {
        fill: #fafafa;
      }

      .cls-20 {
        fill: #1a1a1a;
      }

      .cls-21 {
        fill: #3e3e3e;
      }
    </style>
  </defs>
  <g id="组_3507" data-name="组 3507" transform="translate(-952 -271)">
    <g id="组_3496" data-name="组 3496" transform="translate(951.858 271)">
      <path id="路径_5153" data-name="路径 5153" class="cls-1" d="M371.107,236.1c.3-1.19,1.4-1.929,2-3l-2-3,4-4,3,2c1.05-.635,1.819-1.666,3-2l1-3h5l1,3a10.334,10.334,0,0,1,3,1l3-1,4,3-2,3a20.4,20.4,0,0,1,2,4h3v6l-3,1a10.41,10.41,0,0,1-1,3l2,3-4,4-3-2a20.764,20.764,0,0,1-4,2v3h-6l-1-3a10.41,10.41,0,0,1-3-1l-3,1-4-3,2-3a20.784,20.784,0,0,1-2-4h-3v-6Zm8,3a6,6,0,1,0,6-6,8.119,8.119,0,0,0-5,2C379,236.246,379.078,237.5,379.107,239.1Z" transform="translate(-163.965 -103.193)"/>
      <path id="路径_5154" data-name="路径 5154" class="cls-2" d="M385.261,245.032a2.079,2.079,0,0,1,0-1c.511-2.334,1.662-4.508,4-5a9.357,9.357,0,0,1,4,0c1.156.4,2.258,2.029,3,3a5.7,5.7,0,0,1,0,7c-.349.509-1.508.627-2,1-.469.365-.443.793-1,1a5.29,5.29,0,0,1-3,0c-2.353-.419-4.41-1.685-5-4a8.435,8.435,0,0,1,0-2c.064.487-.117,1.523,0,2a5.137,5.137,0,0,0,2,3,6.817,6.817,0,0,0,6,1c.529-.2.554-.653,1-1a3.583,3.583,0,0,0,1-1,5.96,5.96,0,0,0,0-7c-.355-.474-.515-1.659-1-2-.456-.333-.464.18-1,0-.992-.346-2.97-1.2-4-1-.9.174-1.278,1.436-2,2a5.1,5.1,0,0,0-2,3C385.152,244.513,385.312,244.541,385.261,245.032Z" transform="translate(-170.12 -109.128)"/>
      <path id="路径_5155" data-name="路径 5155" class="cls-2" d="M371.074,236.053c-.065.03.07-.012,0,0h-1l-2,1h0c.032,1.433-.051,3.717,0,6h3a20.932,20.932,0,0,0,2,4h0l-2,3v-1l4,4h0l3-1v-1h0c1.063.586,1.823,1.706,3,2h0c.254,1.021.715,1.852,1,3h6c.216-1.034-.235-1.846,0-3h0a20.806,20.806,0,0,0,4-2h0l3,2h0l3-4h0l-1-3h0a10.412,10.412,0,0,0,1-3h0l3-1h0c-.032-1.9.025-4.154,0-6v1l-3-1h0c-.328-1.165-1.376-1.963-2-3v-1h0l2-3v1l-4-4h0l-3,2h0c-1.057-.591-1.825-1.707-3-2h0l-1-3h-5c-.247,1.167-.778,1.941-1,3h0c-1.171.328-1.956,1.377-3,2h-1l-2-2h0l-4,4h0l2,3h0c-.457.807-1.71,1.119-2,2-.089.279.051.86,0,1h0a7.459,7.459,0,0,1,0-1c.27-.881,1.553-1.194,2-2h0c-.507-.774-1.252-1.871-2-3h0l4-4h0l3,2h-1a20.106,20.106,0,0,1,4-2h0c.222-1.053-.241-1.833,0-3h6c.266,1.072.721,1.871,1,3h0a10.1,10.1,0,0,1,3,1h0l3-1v0l4,3v1h0l-1,3v-1c.642,1.06.661,2.808,1,4h3c.034,1.848-.03,4.11,0,6h0l-3,1h0a10.342,10.342,0,0,1-1,3h0l2,3h0l-4,4h0l-3-1h0c-1.061.642-2.805.666-4,1h1c-.241,1.148-.784,1.966-1,3h-6l-1-3h0a10.366,10.366,0,0,1-3-1h0l-3,2h0l-4-4h0l2-3h0a20.5,20.5,0,0,1-2-4h-3c0-2.29.019-4.567,0-6h0l2-1Z" transform="translate(-163.932 -103.149)"/>
      <path id="路径_5156" data-name="路径 5156" class="cls-3" d="M112.226,211.269a18.7,18.7,0,0,1,2-4l-3-3,5-5,3,2c1.174-.707,2.682-.625,4-1l1-4h6l1,3a18.4,18.4,0,0,1,4,2l3-2,4,4-2,3a18.4,18.4,0,0,1,2,4l4,1v6l-4,1c-.329,1.33-.331,2.8-1,4l2,3-5,5-3-2c-1.174.708-2.682.626-4,1v4h-7l-1-4a9.213,9.213,0,0,1-3-1l-4,2-4-4,2-4c-.707-1.174-1.625-1.682-2-3l-3-1-1-6Zm8,3a7,7,0,1,0,7-7A7.195,7.195,0,0,0,120.226,214.269Z" transform="translate(-69.085 -93.416)"/>
      <path id="路径_5157" data-name="路径 5157" class="cls-4" d="M342.144,191.051c.094-.383-.192-.655,0-1v-1l1-1,1,1c.34-.2.62-.889,1-1v-1h2v1c.383.1.655.808,1,1l1-1,1,1v1c.2.34-.109.62,0,1l1,1v1l-1,1c-.1.383.191.654,0,1l1,1-2,1-1-1c-.338.205-.619.894-1,1v1h-2v-1c-.383-.094-.655-.808-1-1l-1,1-1-1v-1c-.205-.339.106-.619,0-1h-1v-2Zm2,2c.013.789.266.711,1,1s1.453.568,2,0,1.317-1.278,1-2a2.072,2.072,0,0,0-2-1c-.519.012-.643-.376-1,0A4.273,4.273,0,0,0,344.144,193.051Z" transform="translate(-154.002 -90.25)"/>
      <path id="路径_5158" data-name="路径 5158" class="cls-5" d="M47.421,219.919c.144-.531.723-.525,1-1l-1-2,2-1h1c.467-.279,1.474.142,2,0v-2h2l1,2c.53.147.523-.274,1,0h2l1,1v2c.276.471-.145.473,0,1h2v3h-2c-.132.531.264,1.52,0,2l1,1-2,2-1-1a11.233,11.233,0,0,1-2,1v1h-3v-1a11.853,11.853,0,0,1-2-1l-1,1-2-2,1-1a11.055,11.055,0,0,1-1-2h-1v-2Zm4,2c.025,1.482.517,2.021,2,2s3.017-.517,3-2a3.258,3.258,0,0,0-3-3,3.134,3.134,0,0,0-2,1C50.921,220.432,51.41,221.2,51.421,221.919Z" transform="translate(-46.28 -100.06)"/>
      <path id="路径_5159" data-name="路径 5159" class="cls-6" d="M405.938,152.165a20.146,20.146,0,0,1,2-4l-2-3,4-4,3,2a10.179,10.179,0,0,1,3-1l1-4h6l1,4a10.153,10.153,0,0,1,3,1l3-2,4,4-2,3c.649,1.072,1.659,1.795,2,3l3,1v6l-3,1a10.015,10.015,0,0,1-1,3l1,3-4,4-2-2a20.243,20.243,0,0,1-4,2l-1,3h-5l-1-3c-1.217-.3-2.906-.387-4-1l-3,2-4-4,2-3c-.649-1.072-.659-2.795-1-4l-4-1v-5l4-1Zm8,3a6,6,0,1,0,6-6,7.071,7.071,0,0,0-6,6Z" transform="translate(-176.796 -72.441)"/>
      <path id="路径_5160" data-name="路径 5160" class="cls-7" d="M60.73,304.1a21.67,21.67,0,0,1,2-4l-2-2,4-4,2,2c.97-.588,1.908-1.692,3-2l1-3h5l1,3a11.015,11.015,0,0,1,3,1l3-1,3,3-1,3a11.21,11.21,0,0,1,1,3l3,1v5l-3,1a11,11,0,0,1-1,3l2,3-4,3-3-1a11.24,11.24,0,0,1-3,1v3h-6v-3a11.06,11.06,0,0,1-3-1l-3,2-4-4,2-3c-.591-.969-1.694-1.907-2-3h-3v-6Zm7,3c.046,3.084,2.916,5.048,6,5s5.05-2.916,5-6-1.916-5.052-5-5A6.327,6.327,0,0,0,67.73,307.1Z" transform="translate(-50.588 -128.056)"/>
      <path id="路径_5161" data-name="路径 5161" class="cls-8" d="M233.653,138.132c.12-.48.762-.566,1-1l-1-1,2-2,1,1c.423-.253.526-.866,1-1l1-1h2v1a12.383,12.383,0,0,1,2,1l1-1,1,1v2c.256.421-.131.525,0,1h2v2l-2,1c-.119.481.243.568,0,1l1,1-2,2-1-1a12.877,12.877,0,0,1-2,1v1h-2v-1a12.38,12.38,0,0,1-2-1l-1,1-2-2,1-1c-.255-.422.136-.526,0-1h-2v-3h1Zm3,1a3.519,3.519,0,0,0,3,3c1.341-.021,2.021-1.659,2-3s-.659-2.021-2-2S236.628,137.786,236.653,139.132Z" transform="translate(-114.511 -70.434)"/>
      <path id="路径_5174" data-name="路径 5174" class="cls-9" d="M67.153,169.432a5.35,5.35,0,0,1,1,0c.368,0,1.486-.038,2,0a7.443,7.443,0,0,1,1,0,50.353,50.353,0,0,1,5,1,37.414,37.414,0,0,1,5,1c1.762.656,4.332,1.131,6,2a47.156,47.156,0,0,1,4,3c.552.355.575.7,1,1a11.373,11.373,0,0,1,1,1c.3.231.735-.272,1,0-.328-.185-.708.237-1,0-.292-.222-.556-.708-1-1s-1.448-.645-2-1c-1.085-.717-2.478-1.2-4-2-1.664-.848-3.25-2.348-5-3-1.757-.63-3.183-.574-5-1-1.489-.337-3.485-.813-5-1-.634-.1-.48.057-1,0s-1.632.019-2,0A5.653,5.653,0,0,1,67.153,169.432Z" transform="translate(-54.012 -83.667)"/>
      <path id="路径_5175" data-name="路径 5175" class="cls-9" d="M49.376,272.655c.1-.11-.125.084,0,0l1-1c.438-.336,1.34-.569,2-1s1.144-.5,2-1,1.966-1.455,3-2,1.82-1.423,3-2a69.34,69.34,0,0,1,8-3,65.626,65.626,0,0,1,8-2c1.268-.2,2.846.108,4,0s2.011-.943,3-1,2.226.019,3,0,1.448,0,2,0h1c.149,0-.146-.029,0,0-.148.015.148.015,0,0h-1c-.552,0-1.214-.051-2,0s-2.017.9-3,1-1.852-.165-3,0-2.712-.209-4,0c-2.786.519-5.294,2.159-8,3a73.707,73.707,0,0,0-8,3c-1.173.571-1.985.436-3,1s-2.15,1.5-3,2-1.334.581-2,1-1.55.683-2,1l-1,1C49.258,272.733,49.5,272.594,49.376,272.655Z" transform="translate(-47.234 -116.709)"/>
      <path id="路径_5176" data-name="路径 5176" class="cls-9" d="M120.663,316.531c0-.116-.029.112,0,0v-1c.082-.419.848-.41,1-1s-.222-1.258,0-2c.412-1.484,1.283-4.091,2-6s1.953-3.894,3-6a49.581,49.581,0,0,1,3-5c1.085-1.725,2.055-3.77,3-5,.457-.634.638-.524,1-1s.708-1.677,1-2h1c.159-.165-.013-1.006,0-1-.055.1.08.914,0,1-.159.209-.734-.311-1,0s-.632,1.512-1,2-.537.372-1,1c-.913,1.224-1.915,3.294-3,5s-1.947,3.907-3,6-2.233,4.116-3,6-1.562,3.548-2,5c-.235.736.165,1.416,0,2s-.9.581-1,1,.07.746,0,1C120.67,316.652,120.683,316.411,120.663,316.531Z" transform="translate(-73.521 -126.498)"/>
      <path id="路径_5177" data-name="路径 5177" class="cls-9" d="M246.685,59.461c-.071.134.094.881,0,1l-1,1c-.336.457-.556,1.328-1,2s-.467,1.137-1,2-1.366,1.966-2,3-1.353,1.827-2,3a88.67,88.67,0,0,0-4,8c-1.161,2.835-2.233,5.425-3,8-.355,1.268-.734,2.852-1,4s.209,2,0,3-.854,2.214-1,3a18.993,18.993,0,0,0,0,2c-.076.564.051.7,0,1-.015.151.048.856,0,1-.014-.152-.014-.848,0-1,.038-.33-.063-.493,0-1a17.341,17.341,0,0,1,0-2c.14-.786-.209-2,0-3s.715-1.839,1-3,.677-2.7,1-4c.755-2.588,1.839-5.114,3-8a81.717,81.717,0,0,1,4-8c.634-1.18,1.366-1.979,2-3s.442-2.15,1-3,1.537-2.34,2-3,.613-.556,1-1,.791-.74,1-1C246.773,60.332,246.567,59.563,246.685,59.461Z" transform="translate(-113.543 -43.957)"/>
      <path id="路径_5178" data-name="路径 5178" class="cls-9" d="M329.181,163.453c-.124.037.129-.01,0,0h-1l-1,1c-.292.044-.67-.057-1,0-.672.14-1.175-.241-2,0l-1,1c-.457.12-1.524-.152-2,0-.97.292-1.953.575-3,1a38.495,38.495,0,0,0-12,9c-.755.844-1.4,1.188-2,2-.3.4-.74.619-1,1l-1,1a19.537,19.537,0,0,0-1,2c-.171.3.14.74,0,1l-1,1v1c-.053.12.082-.1,0,0,.035-.125-.058.116,0,0,.12-.266-.19-.619,0-1l1-1c.133-.26-.165-.7,0-1a21.268,21.268,0,0,1,1-2l1-1c.26-.393.7-.594,1-1,.6-.825,1.245-2.144,2-3a34.062,34.062,0,0,1,12-8c1.059-.419,2.023-.715,3-1,.488-.146,1.543-.886,2-1h1c.755-.186,1.23.105,2,0,.336-.057.689-.968,1-1h2C329.309,163.433,329.052,163.437,329.181,163.453Z" transform="translate(-139.039 -81.689)"/>
      <path id="路径_5179" data-name="路径 5179" class="cls-9" d="M382.651,219.18h-1l-1-1h-2c-.482-.165-.429-.816-1-1-1.135-.355-2.541-.632-4-1l-3-1c-.793-.216-1.144.2-2,0-1.712-.425-4.053-.645-6-1a90.444,90.444,0,0,0-25-1c-1.966.235-4.262.683-6,1-.869.152-1.176-.165-2,0l-3,1c-1.478.279-2.839.7-4,1-.577.146-.512-.133-1,0h-2l-1,1h-1c-.057.008.057.008,0,0h1l1-1h2c.488-.146.423-.841,1-1,1.154-.3,2.522-.7,4-1h3c.8-.171,1.112-.848,2-1,1.744-.336,4.027.247,6,0,8.6-.934,17.474-1.46,26,0,1.953.368,3.275.562,5,1,.863.209,2.207.746,3,1l2,1c1.459.387,2.865.632,4,1,.571.19.518.822,1,1h2l1,1h1C382.752,219.256,382.657,219.174,382.651,219.18Z" transform="translate(-145.509 -99.335)"/>
      <g id="freepik--Robot--inject-22" transform="translate(10.574 0)">
        <path id="路径_5195" data-name="路径 5195" class="cls-10" d="M0,0H.837A8.848,8.848,0,0,1,9.685,8.848v2.391A8.848,8.848,0,0,1,.837,20.087H0Z" transform="matrix(0.71, -0.705, 0.705, 0.71, 65.935, 12.886)"/>
        <path id="路径_5196" data-name="路径 5196" class="cls-11" d="M181.535,67.9h0l-15-15h1c1.658-1.654,3.658-3.005,6-3h0a8.652,8.652,0,0,1,6,3l2,2a8.241,8.241,0,0,1,0,12Zm-15-15,15,15v-1a8.257,8.257,0,0,0,0-12l-2-2a8.653,8.653,0,0,0-6-3h0c-2.328-.014-4.345,1.362-6,3Z" transform="translate(-100.967 -40.395)"/>
        <path id="路径_5197" data-name="路径 5197" class="cls-10" d="M0,0H.837A8.848,8.848,0,0,1,9.685,8.848v2.391A8.879,8.879,0,0,1,.805,20.118H0Z" transform="matrix(-0.735, 0.678, -0.678, -0.735, 37.352, 69.198)"/>
        <path id="路径_5198" data-name="路径 5198" class="cls-11" d="M105.2,137.585h0c-2.349-.089-4.408-.27-6-2l-2-2c-3.312-3.6-2.589-9.676,1-13h0l14,15h-1A8.511,8.511,0,0,1,105.2,137.585Zm-7-17a8.635,8.635,0,0,0-3,6c-.1,2.352.4,5.274,2,7l2,2c1.586,1.726,3.657,1.912,6,2h0a8.525,8.525,0,0,0,6-2h1l-14-15Z" transform="translate(-74.634 -65.91)"/>
        <rect id="矩形_2392" data-name="矩形 2392" class="cls-10" width="1.586" height="13.123" transform="translate(14.367 37.777) rotate(-51.11)"/>
        <path id="路径_5199" data-name="路径 5199" class="cls-11" d="M84.726,87.457c1.391,1.121,2.121,3.609,1,5s-3.609,1.121-5,0-1.121-2.609,0-4S83.333,86.343,84.726,87.457Z" transform="translate(-69.158 -53.953)"/>
        <rect id="矩形_2393" data-name="矩形 2393" class="cls-12" width="62.904" height="47.467" rx="16.5" transform="translate(17.483 51.974) rotate(-44.8)"/>
        <path id="路径_5200" data-name="路径 5200" class="cls-10" d="M147.022,52.364l-1-6-4,1-1-4h1l1,3,4-1,1,6Z" transform="translate(-91.454 -37.86)"/>
        <rect id="矩形_2394" data-name="矩形 2394" class="cls-11" width="53.993" height="19.389" rx="9.694" transform="translate(25.639 53.862) rotate(-44.8)"/>
        <path id="路径_5201" data-name="路径 5201" class="cls-11" d="M151.224,83.374s-.159-.816,0-1c.249-.267.784.294,1,0a12.321,12.321,0,0,0,2-4,12.043,12.043,0,0,0,0-3c-.01-1.2.368-2.86,0-4a8.523,8.523,0,0,0-2-3l-1-1-1-1a6.01,6.01,0,0,0-1-1c-1.346-1.045-3.332-2.651-5-3-1.809-.336-3.243.455-5,1a13.431,13.431,0,0,0-3,1,12.279,12.279,0,0,0-2,2l-5,4-20,20a9.746,9.746,0,0,0-3,6,14.554,14.554,0,0,0,0,4,12.254,12.254,0,0,0,2,5c.374.438,1.581.594,2,1a13.369,13.369,0,0,0,2,2c3.549,2.565,8.231,3.23,12,1,.441-.254.6-.692,1-1a13.519,13.519,0,0,0,1-1l3-2,7-8,11-10,3-3,1-1h0l-1,1-3,3-11,11-7,7-2,2c-.355.349-.619.67-1,1-.4.317-1.56.734-2,1-3.868,2.3-8.348,2.626-12,0a31.193,31.193,0,0,1-3-3c-.412-.4-.613-.581-1-1-.363-.469-.7-.485-1-1a14.817,14.817,0,0,1-1-4,7.94,7.94,0,0,1,0-3,12.149,12.149,0,0,1,3-7l20-20,4-4a19.6,19.6,0,0,1,3-2c4-2.546,9.251-2.9,13,0,.628.5.45,1.415,1,2l1,1,1,1a8.348,8.348,0,0,1,2,3,14.938,14.938,0,0,1,1,4c-.023,1.021-.724,2.016-1,3a12.172,12.172,0,0,1-2,4c-.224.289-.738-.256-1,0Z" transform="translate(-78.656 -44.87)"/>
        <path id="路径_5202" data-name="路径 5202" class="cls-13" d="M125.322,120.229a54.812,54.812,0,0,1,0-6,53.035,53.035,0,0,1,0-6,56.216,56.216,0,0,1,0,6A55.705,55.705,0,0,1,125.322,120.229Z" transform="translate(-85.754 -61.582)"/>
        <path id="路径_5203" data-name="路径 5203" class="cls-13" d="M128.094,116.239c-1.892.256-4.09.973-6,1a56.879,56.879,0,0,1-6,0,52.52,52.52,0,0,1,6,0C123.993,117.1,126.191,116.165,128.094,116.239Z" transform="translate(-82.526 -64.735)"/>
        <path id="路径_5204" data-name="路径 5204" class="cls-13" d="M161.357,83.945a55.14,55.14,0,0,1,0-6,52.809,52.809,0,0,1,0-6,56.218,56.218,0,0,1,0,6A55.705,55.705,0,0,1,161.357,83.945Z" transform="translate(-98.79 -48.442)"/>
        <path id="路径_5205" data-name="路径 5205" class="cls-13" d="M163.129,79.953c-1.893.249-3.091.966-5,1a53.87,53.87,0,0,1-6,0,55.353,55.353,0,0,1,6,0C160.029,80.812,161.226,79.875,163.129,79.953Z" transform="translate(-95.561 -51.45)"/>
        <ellipse id="椭圆_137" data-name="椭圆 137" class="cls-11" cx="3.235" cy="3.235" rx="3.235" ry="3.235" transform="matrix(1, -0.016, 0.016, 1, 45.992, 0.1)"/>
        <path id="路径_5206" data-name="路径 5206" class="cls-11" d="M149.248,149.4a12.3,12.3,0,0,1-1-1c-.349-.311-.4-.429-1-1-1.2-1.142-3.205-3.218-5-5s-2.846-2.8-4-4a15.618,15.618,0,0,1-2-2c.186.154-.169-.172,0,0l2,2c1.268,1.211,2.224,2.256,4,4s3.839,3.814,5,5l1,1A11.392,11.392,0,0,1,149.248,149.4Z" transform="translate(-89.68 -71.697)"/>
        <path id="路径_5207" data-name="路径 5207" class="cls-11" d="M192.092,105.447c-.2-.131.167.176,0,0-.342-.311-1.4-1.429-2-2-1.205-1.148-2.2-2.218-4-4s-3.852-3.8-5-5a15.911,15.911,0,0,1-2-2c.189.148.834.827,1,1l1,1,5,5c1.8,1.782,2.839,2.814,4,4l2,2C192.271,105.609,191.963,105.243,192.092,105.447Z" transform="translate(-105.525 -55.943)"/>
        <rect id="矩形_2395" data-name="矩形 2395" class="cls-11" width="33.076" height="3.628" transform="translate(50.483 64.206) rotate(-45.46)"/>
        <path id="路径_5208" data-name="路径 5208" class="cls-11" d="M137.018,142.393c-.009.286-.731.9-1,1s.189-.786,0-1-1.129.255-1,0,.715-1.026,1-1C136.387,141.423,137.032,142.022,137.018,142.393Z" transform="translate(-89.45 -73.688)"/>
        <path id="路径_5209" data-name="路径 5209" class="cls-11" d="M145.071,151.646c-.046.359-.638.015-1,0s.016.362,0,0c.046-.359-.362-1.015,0-1A1.454,1.454,0,0,1,145.071,151.646Z" transform="translate(-92.504 -76.924)"/>
        <path id="路径_5210" data-name="路径 5210" class="cls-11" d="M185.914,92.114c-.033.37-.628,1.015-1,1-.263.012.129.23,0,0a1.258,1.258,0,0,1,0-1c.147-.219-.261-.033,0,0,.191,0,.874-.143,1,0S185.934,91.924,185.914,92.114Z" transform="translate(-107.346 -55.611)"/>
        <path id="路径_5211" data-name="路径 5211" class="cls-11" d="M194.019,101.359c-.016.382-.618,1.016-1,1s-.016-.618,0-1,.618-1.016,1-1S194.034,100.978,194.019,101.359Z" transform="translate(-110.451 -58.856)"/>
        <path id="路径_5212" data-name="路径 5212" class="cls-13" d="M101.911,137.725c-.463-.461-.487-1.595-1-2-.476-.374-1.385-.455-2-1-.676-.589-.613-1.191-1-2-.7-1.478-1.38-3.408-1-5,.114-.475.768-.57,1-1,.178-.3-.019-1.013,0-1a19.348,19.348,0,0,0-1,2,9.037,9.037,0,0,0,1,5c.761,1.687,2.068,2.207,3,3C101.45,136.116,101.595,137.139,101.911,137.725Z" transform="translate(-75.343 -68.043)"/>
        <path id="路径_5213" data-name="路径 5213" class="cls-13" d="M131.655,63.807c.063.063-6.717,5.951-15,14s-14.937,15.063-15,15,6.7-6.964,15-15S131.591,63.743,131.655,63.807Z" transform="translate(-77.087 -45.303)"/>
        <path id="路径_5214" data-name="路径 5214" class="cls-13" d="M83.083,93.091a1,1,0,0,1-1,0,3.245,3.245,0,0,1-1-4c.279-.438.975-.032,1,0s-.8.581-1,1c-.261.544-.113.407,0,1a4.361,4.361,0,0,0,1,2C82.407,93.4,83.134,93.04,83.083,93.091Z" transform="translate(-69.515 -54.588)"/>
        <path id="路径_5215" data-name="路径 5215" class="cls-13" d="M138.406,40.863a.9.9,0,0,1-1,0,3.013,3.013,0,0,1-1-2c-.094-.72.541-1.438,1-2,.355-.425-.019-1.032,0-1a1.1,1.1,0,0,1,0,1c-.773,1.116-1.029,3.115,0,4C137.78,41.193,138.425,40.812,138.406,40.863Z" transform="translate(-89.838 -35.36)"/>
        <path id="路径_5216" data-name="路径 5216" class="cls-13" d="M174.519,51.421a20.11,20.11,0,0,0-3,1,10.312,10.312,0,0,0-2,1c.516-.782,1.111-.705,2-1C172.375,52.024,173.6,51.209,174.519,51.421Z" transform="translate(-101.951 -40.917)"/>
        <path id="路径_5217" data-name="路径 5217" class="cls-13" d="M130.845,153.019c-1.657-1.473-3.5-3.367-5-5-2.537-2.638-5.07-4.937-5-5s2.45,2.362,5,5S130.908,152.955,130.845,153.019Z" transform="translate(-84.277 -74.305)"/>
        <rect id="矩形_2396" data-name="矩形 2396" class="cls-12" width="27" height="39" transform="translate(92.568 231.33)"/>
        <path id="路径_5218" data-name="路径 5218" class="cls-11" d="M206.765,458.17h27c2,0,3,2,3,4h-34a3.536,3.536,0,0,1,4-4Z" transform="translate(-114.197 -188.84)"/>
        <rect id="矩形_2397" data-name="矩形 2397" class="cls-12" width="41" height="6" transform="translate(85.568 273.33)"/>
        <path id="路径_5219" data-name="路径 5219" class="cls-11" d="M235.8,452.02a89.926,89.926,0,0,1-14,1,70.761,70.761,0,0,1-13-1c0-.089,5.573,0,13,0S235.8,451.924,235.8,452.02Z" transform="translate(-116.234 -186.69)"/>
        <path id="路径_5220" data-name="路径 5220" class="cls-11" d="M235.8,445.379c0,.1-6.579,0-14,0s-13,.1-13,0,5.573,0,13,0S235.8,445.29,235.8,445.379Z" transform="translate(-116.234 -184.049)"/>
        <path id="路径_5221" data-name="路径 5221" class="cls-11" d="M235.8,437.789a89.926,89.926,0,0,1-14,1,70.761,70.761,0,0,1-13-1c0-.089,5.573,0,13,0S235.8,437.7,235.8,437.789Z" transform="translate(-116.234 -181.46)"/>
        <path id="路径_5222" data-name="路径 5222" class="cls-11" d="M235.8,431.152c0,.089-6.579,0-14,0s-13,.089-13,0,5.573,0,13,0S235.8,431.089,235.8,431.152Z" transform="translate(-116.234 -178.822)"/>
        <path id="路径_5223" data-name="路径 5223" class="cls-11" d="M235.8,423.555a89.027,89.027,0,0,1-14,1,70.092,70.092,0,0,1-13-1c0-.1,5.573,0,13,0S235.8,423.473,235.8,423.555Z" transform="translate(-116.234 -176.226)"/>
        <path id="路径_5224" data-name="路径 5224" class="cls-11" d="M235.8,416.922c0,.1-6.579,0-14,0s-13,.1-13,0,5.573,0,13,0S235.8,416.833,235.8,416.922Z" transform="translate(-116.234 -173.592)"/>
        <path id="路径_5225" data-name="路径 5225" class="cls-11" d="M235.8,409.332c0,.089-6.579,0-14,0s-13,.089-13,0,5.573,0,13,0S235.8,409.237,235.8,409.332Z" transform="translate(-116.234 -171.003)"/>
        <path id="路径_5226" data-name="路径 5226" class="cls-11" d="M235.8,402.7c0,.089-6.579,0-14,0s-13,.089-13,0,5.573,0,13,0S235.8,402.6,235.8,402.7Z" transform="translate(-116.234 -168.366)"/>
        <g id="组_3483" data-name="组 3483" class="cls-14" transform="translate(91.568 232.33)">
          <path id="路径_5227" data-name="路径 5227" d="M208.593,404.766l27-1v-4h-28Z" transform="translate(-207.593 -399.766)"/>
        </g>
        <rect id="矩形_2398" data-name="矩形 2398" class="cls-12" width="27" height="39" transform="translate(134.568 231.33)"/>
        <path id="路径_5228" data-name="路径 5228" class="cls-11" d="M273.277,458.17h27a4.307,4.307,0,0,1,4,4h-34a4.681,4.681,0,0,1,1-3A2.409,2.409,0,0,1,273.277,458.17Z" transform="translate(-138.71 -188.84)"/>
        <rect id="矩形_2399" data-name="矩形 2399" class="cls-12" width="41" height="6" transform="translate(128.568 273.33)"/>
        <path id="路径_5229" data-name="路径 5229" class="cls-11" d="M302.308,452.02a70.761,70.761,0,0,1-13,1,89.926,89.926,0,0,1-14-1c0-.089,6.573,0,14,0S302.308,451.924,302.308,452.02Z" transform="translate(-140.739 -186.69)"/>
        <path id="路径_5230" data-name="路径 5230" class="cls-11" d="M302.308,445.379c0,.1-5.579,0-13,0s-14,.1-14,0,6.573,0,14,0S302.308,445.29,302.308,445.379Z" transform="translate(-140.739 -184.049)"/>
        <path id="路径_5231" data-name="路径 5231" class="cls-11" d="M302.308,437.789a70.761,70.761,0,0,1-13,1,89.926,89.926,0,0,1-14-1c0-.089,6.573,0,14,0S302.308,437.7,302.308,437.789Z" transform="translate(-140.739 -181.46)"/>
        <path id="路径_5232" data-name="路径 5232" class="cls-11" d="M302.308,431.152c0,.089-5.579,0-13,0s-14,.089-14,0,6.573,0,14,0S302.308,431.089,302.308,431.152Z" transform="translate(-140.739 -178.822)"/>
        <path id="路径_5233" data-name="路径 5233" class="cls-11" d="M302.308,423.555a70.1,70.1,0,0,1-13,1,89.018,89.018,0,0,1-14-1c0-.1,6.573,0,14,0S302.308,423.473,302.308,423.555Z" transform="translate(-140.739 -176.226)"/>
        <path id="路径_5234" data-name="路径 5234" class="cls-11" d="M302.308,416.922c0,.1-5.579,0-13,0s-14,.1-14,0,6.573,0,14,0S302.308,416.833,302.308,416.922Z" transform="translate(-140.739 -173.592)"/>
        <path id="路径_5235" data-name="路径 5235" class="cls-11" d="M302.308,409.332c0,.089-5.579,0-13,0s-14,.089-14,0,6.573,0,14,0S302.308,409.237,302.308,409.332Z" transform="translate(-140.739 -171.003)"/>
        <path id="路径_5236" data-name="路径 5236" class="cls-11" d="M302.308,402.7c0,.089-5.579,0-13,0s-14,.089-14,0,6.573,0,14,0S302.308,402.6,302.308,402.7Z" transform="translate(-140.739 -168.366)"/>
        <g id="组_3484" data-name="组 3484" class="cls-14" transform="translate(134.568 232.33)">
          <path id="路径_5237" data-name="路径 5237" d="M275.106,404.766l27-1v-4h-27Z" transform="translate(-275.106 -399.766)"/>
        </g>
        <path id="路径_5238" data-name="路径 5238" class="cls-12" d="M1.173,0h2.74A1.161,1.161,0,0,1,5.074,1.161V12.374H0V1.167A1.161,1.161,0,0,1,1.161.006Z" transform="matrix(0.245, -0.97, 0.97, 0.245, 162.961, 127.295)"/>
        <g id="组_3485" data-name="组 3485" class="cls-14" transform="translate(162.961 122.375)">
          <path id="路径_5239" data-name="路径 5239" d="M1.173,0h2.74A1.161,1.161,0,0,1,5.074,1.161V12.374H0V1.167A1.161,1.161,0,0,1,1.161.006Z" transform="matrix(0.245, -0.97, 0.97, 0.245, 0, 4.92)"/>
        </g>
        <path id="路径_5240" data-name="路径 5240" class="cls-12" d="M1.941,0H5.708a1.9,1.9,0,0,1,1.9,1.9V12.349H0V1.928A1.9,1.9,0,0,1,1.941,0Z" transform="matrix(0.245, -0.97, 0.97, 0.245, 160.405, 137.47)"/>
        <rect id="矩形_2400" data-name="矩形 2400" class="cls-12" width="12.932" height="4.884" transform="matrix(0.245, -0.97, 0.97, 0.245, 168.306, 136.761)"/>
        <path id="路径_5241" data-name="路径 5241" class="cls-12" d="M343.149,282.651s19.674-.579,18-20c-1.268-14.873-23-15-23-15l6-12s25.894,2.176,31,21c5.765,21.273-7.772,38.406-32,38Z" transform="translate(-163.581 -107.669)"/>
        <rect id="矩形_2401" data-name="矩形 2401" class="cls-11" width="7.89" height="17.556" transform="translate(174.112 124.148) rotate(12.46)"/>
        <path id="路径_5242" data-name="路径 5242" class="cls-10" d="M340,255.523a7.353,7.353,0,0,1-4,0,25.358,25.358,0,0,1-4-1c1.286.136,2.753-.341,4,0,1.047.241,2.321.835,3,1h0C339.1,255.547,339.9,255.475,340,255.523Z" transform="translate(-161.43 -114.605)"/>
        <path id="路径_5243" data-name="路径 5243" class="cls-10" d="M340.393,250.742c0,.146-.907.482-3,0a24.436,24.436,0,0,1-4-1c1.286.137,2.753-.34,4,0,1.046.241,1.315.835,2,1h1C340.5,250.763,340.3,250.691,340.393,250.742Z" transform="translate(-161.825 -112.833)"/>
        <path id="路径_5244" data-name="路径 5244" class="cls-10" d="M341.879,245.946a39.041,39.041,0,0,1-4-1,14.949,14.949,0,0,1-3-1,27.4,27.4,0,0,1,4,1c1.04.235,1.321.829,2,1Z" transform="translate(-162.312 -111.048)"/>
        <path id="路径_5245" data-name="路径 5245" class="cls-10" d="M343.194,241.183c0,.146-1.939-.518-4-1a24.564,24.564,0,0,1-4-1,27.365,27.365,0,0,1,4,1c1.046.241,2.315.835,3,1h1C343.292,241.206,343.107,241.135,343.194,241.183Z" transform="translate(-162.626 -109.294)"/>
        <path id="路径_5246" data-name="路径 5246" class="cls-10" d="M344.651,236.515a7.243,7.243,0,0,1-4,0c-1.277-.238-2.783-1.546-4-2a27.362,27.362,0,0,1,4,1c1.047.235,2.321.829,3,1h0C343.745,236.548,344.563,236.472,344.651,236.515Z" transform="translate(-163.083 -107.635)"/>
        <path id="路径_5247" data-name="路径 5247" class="cls-11" d="M351.666,321.907c-.193-.556.081-1.417,0-2a36.1,36.1,0,0,1-1-4,34.642,34.642,0,0,1,0-4,11.225,11.225,0,0,1,0-2,12.04,12.04,0,0,1,0,2c.1,1.078-.19,2.357,0,4s.854,2.928,1,4A12.866,12.866,0,0,1,351.666,321.907Z" transform="translate(-168.098 -134.864)"/>
        <path id="路径_5248" data-name="路径 5248" class="cls-11" d="M360.167,320.168c-.723-1.982-.493-3.952-1-6a60.279,60.279,0,0,1-2-6,60.772,60.772,0,0,1,2,6A57.462,57.462,0,0,1,360.167,320.168Z" transform="translate(-170.6 -134.128)"/>
        <path id="路径_5249" data-name="路径 5249" class="cls-11" d="M371.951,315.716a14.881,14.881,0,0,1-1-2c-.685-1.142-2.061-2.4-3-4l-2-4a16.134,16.134,0,0,1-1-2,14.062,14.062,0,0,1,1,2c.685,1.027,2.068,2.389,3,4s1.417,2.909,2,4A14.7,14.7,0,0,1,371.951,315.716Z" transform="translate(-173.383 -132.685)"/>
        <path id="路径_5250" data-name="路径 5250" class="cls-11" d="M380.728,307.883a28.336,28.336,0,0,1-6-4,30.482,30.482,0,0,1-5-5,28.514,28.514,0,0,1,6,4A30.2,30.2,0,0,1,380.728,307.883Z" transform="translate(-175.16 -130.867)"/>
        <path id="路径_5251" data-name="路径 5251" class="cls-11" d="M387.137,297.493a26.977,26.977,0,0,1-7-2c-3.647-1.516-7.038-2.918-7-3a27.213,27.213,0,0,1,7,2C383.777,296.009,387.168,297.379,387.137,297.493Z" transform="translate(-176.569 -128.497)"/>
        <path id="路径_5252" data-name="路径 5252" class="cls-11" d="M389.674,286.731a13.441,13.441,0,0,1-2,0l-5-1-5-1a26.159,26.159,0,0,1-3,0,25.9,25.9,0,0,1,3,0c1.319.1,3,.753,5,1s3.681-.222,5,0C388.386,285.822,388.989,286.522,389.674,286.731Z" transform="translate(-177.107 -125.755)"/>
        <path id="路径_5253" data-name="路径 5253" class="cls-11" d="M388.678,273.718a13.939,13.939,0,0,1-2,1c-1.2.349-3.135.607-5,1s-3.763.835-5,1a10.819,10.819,0,0,1-2,0,14.36,14.36,0,0,1,2,0c1.224-.222,3.142-.607,5-1s3.789-1.708,5-2A14.179,14.179,0,0,1,388.678,273.718Z" transform="translate(-177.11 -121.761)"/>
        <path id="路径_5254" data-name="路径 5254" class="cls-11" d="M384.88,260.866c.038.082-2.607,1.288-6,3s-5.956,3.082-6,3,2.607-1.288,6-3S384.836,260.79,384.88,260.866Z" transform="translate(-176.312 -116.928)"/>
        <path id="路径_5255" data-name="路径 5255" class="cls-11" d="M377.985,249.935c.057.07-2.127,1.545-5,4a67.883,67.883,0,0,0-5,5,36.015,36.015,0,0,1,5-5A55.958,55.958,0,0,1,377.985,249.935Z" transform="translate(-174.418 -113.014)"/>
        <path id="路径_5256" data-name="路径 5256" class="cls-11" d="M366.036,242.017c.076.044-1.18,1.937-3,5-1.063,1.871-1.747,4.25-3,6a36.9,36.9,0,0,1,3-6A51.917,51.917,0,0,1,366.036,242.017Z" transform="translate(-171.469 -110.109)"/>
        <path id="路径_5257" data-name="路径 5257" class="cls-11" d="M354.951,237.188a60.66,60.66,0,0,1-2,6c-1.129,3.425-1.918,6.025-2,6a58.4,58.4,0,0,1,2-6A59.423,59.423,0,0,1,354.951,237.188Z" transform="translate(-168.383 -108.288)"/>
        <g id="组_3486" data-name="组 3486" class="cls-14" transform="translate(184.568 149.99)">
          <path id="路径_5258" data-name="路径 5258" d="M365.7,285.536c-1.5,3.285-3.754,6.413-7,8-1.577.837-3.273.547-5,1a10.8,10.8,0,0,0,12-1c3.387-2.8,4.879-7.6,5-12a13.329,13.329,0,0,0-1-6c-.863-1.9-2.116-4.125-4-5a9.393,9.393,0,0,1,1,3A20.584,20.584,0,0,1,365.7,285.536Z" transform="translate(-353.701 -270.536)"/>
        </g>
        <path id="路径_5259" data-name="路径 5259" class="cls-11" d="M137.906,347.9a12.154,12.154,0,0,1,1,1c.393.463.366,1.118,1,2a40.723,40.723,0,0,1,4,7,44.474,44.474,0,0,1,3,8c.247,1.053.911,2.366,1,3a6.621,6.621,0,0,1,0,1c-.108-.3-.952-.689-1-1-.127-.59.266-1.96,0-3a53.648,53.648,0,0,0-3-8,47.3,47.3,0,0,0-4-7,22.558,22.558,0,0,0-2-2C137.7,348.656,138.062,348.174,137.906,347.9Z" transform="translate(-90.338 -148.756)"/>
        <path id="路径_5260" data-name="路径 5260" class="cls-11" d="M133.346,344.593a.992.992,0,0,1,1,0c.311.279.057.918,0,1s.311.279,0,0S133.289,344.656,133.346,344.593Z" transform="translate(-88.778 -147.506)"/>
        <path id="路径_5261" data-name="路径 5261" class="cls-11" d="M134.7,341.525c.076-.044.689.48,1,1a.844.844,0,0,1,0,1c-.076.044-.689-.48-1-1A.833.833,0,0,1,134.7,341.525Z" transform="translate(-89.131 -146.442)"/>
        <path id="路径_5262" data-name="路径 5262" class="cls-10" d="M153.477,357c.019-.171-.045.166,0,0,.089-.359-.14-1.4,0-2,.3-1.268.512-2.748,1-5,.977-4.5,2.131-11.023,3-18a79.86,79.86,0,0,1,2-10c.369-1.409.242-2.756,1-4,1.7-2.65,4.932-4.305,8-5,.484-.112.5.035,1,0,.173-.015.827-.015,1,0-.169.037-.827-.014-1,0-.489.067-.521-.119-1,0a14.552,14.552,0,0,0-5,3,6.891,6.891,0,0,0-2,2,16.182,16.182,0,0,0-2,4c-.786,2.93-.537,6.512-1,10-.875,6.977-2.966,13.491-4,18-.52,2.252-.67,3.757-1,5a18.411,18.411,0,0,0,0,2C153.435,357.165,153.545,356.84,153.477,357Z" transform="translate(-95.909 -135.874)"/>
        <path id="路径_5263" data-name="路径 5263" class="cls-11" d="M153.912,303.548c.425.859,1.352,1.294,2,2a10.445,10.445,0,0,0,6,3,23.534,23.534,0,0,0,7,0h2c.254-.058.739-.99,1-1-.24.105-.742.954-1,1-.488.12-1.118-.178-2,0-2.287.52-4.669,1.264-7,1-2.371-.3-4.345-2.275-6-4-.489-.528-.7-.347-1-1C154.779,304.319,153.968,303.806,153.912,303.548Z" transform="translate(-96.344 -132.528)"/>
        <path id="路径_5264" data-name="路径 5264" class="cls-11" d="M150.516,300.385c.063-.063.7-.311,1,0s.063.962,0,1-.7.3-1,0S150.452,300.448,150.516,300.385Z" transform="translate(-94.948 -131.381)"/>
        <path id="路径_5265" data-name="路径 5265" class="cls-11" d="M151.924,298.752c.082-.051-.266-.444,0,0s1.082.956,1,1-.727.444-1,0A.947.947,0,0,1,151.924,298.752Z" transform="translate(-95.357 -130.751)"/>
        <path id="路径_5266" data-name="路径 5266" class="cls-11" d="M154.888,298.671c.1,0,.07-.45,0,0s-.911,1.013-1,1-.07-.55,0-1S154.8,298.658,154.888,298.671Z" transform="translate(-96.32 -130.67)"/>
        <path id="路径_5267" data-name="路径 5267" class="cls-10" d="M161.223,336.954c.016.377.049,1.626,0,2-.057.729-.848,1.712-1,3-.3,2.588-.207,6.112-1,10s-2.271,6.5-3,9c-.368,1.268-.772,2.315-1,3-.106.362.156.657,0,1,.064-.371-.113-.641,0-1,.209-.748.67-1.789,1-3,.672-2.537,1.207-5.118,2-9s1.638-7.431,2-10c.171-1.268-.1-2.226,0-3C160.261,338.579,161.139,337.322,161.223,336.954Z" transform="translate(-96.655 -144.821)"/>
        <path id="路径_5268" data-name="路径 5268" class="cls-10" d="M175.71,314.466a3.269,3.269,0,0,0-2,0,11.065,11.065,0,0,0-8,7c-.482,1.364-.924,3.013-1,3a4.378,4.378,0,0,1,0-1,12.863,12.863,0,0,1,0-2,10.253,10.253,0,0,1,8-7,12.968,12.968,0,0,1,2,0A4.687,4.687,0,0,1,175.71,314.466Z" transform="translate(-100.142 -136.417)"/>
        <path id="路径_5269" data-name="路径 5269" class="cls-10" d="M158.206,358.559c-.011-.158-.011.158,0,0a16.008,16.008,0,0,1,0-2c.175-1.685.183-3.516,1-5,.533-.932,1.4-1.922,2-3,.3-.552.88-.383,1-1a7.229,7.229,0,0,0,0-2,20.273,20.273,0,0,1,0-5,4.8,4.8,0,0,1,1-2c.463-.634.575-1.366,1-2a3.934,3.934,0,0,0,1-2c-.009-.764-.807-1.26-1-2a16.9,16.9,0,0,1,0-5,12.847,12.847,0,0,1,7-10c.411-.212.566.159,1,0,.148-.062.844.035,1,0-.137.082-.85-.053-1,0-.285.133-.486-.311-1,0a16.889,16.889,0,0,0-4,4c-1.541,1.941-2.8,3.529-3,6-.112,1.453.636,3.589,1,5a7.022,7.022,0,0,1,0,2,3.659,3.659,0,0,1-1,2c-.444.7-.55,1.366-1,2a4.944,4.944,0,0,0-1,2,20.929,20.929,0,0,0,0,5,6.991,6.991,0,0,1,0,2,8.375,8.375,0,0,1-1,2c-.634,1.1-1.467,2.093-2,3a9.163,9.163,0,0,0-1,4c-.1.558.057,1.664,0,2C158.2,358.714,158.24,358.406,158.206,358.559Z" transform="translate(-97.638 -137.432)"/>
        <path id="路径_5270" data-name="路径 5270" class="cls-15" d="M175.681,324.257a9.734,9.734,0,0,0-2,0,6.364,6.364,0,0,0-3,3,13.291,13.291,0,0,0-2,6,79.484,79.484,0,0,1-1,8,130.92,130.92,0,0,1-4,14c-.571,1.744-.658,3.055-1,4-.159.457-.9.715-1,1-.038.134.071-.119,0,0,.027-.142-.049.136,0,0,.082-.292.86-.537,1-1l1-4c1.072-3.507,2.858-8.52,4-14,.558-2.734.746-5.584,1-8a12.758,12.758,0,0,1,2-6c.794-1.256,1.577-2.571,3-3a2.832,2.832,0,0,1,1,0C174.821,324.256,175.542,324.235,175.681,324.257Z" transform="translate(-99.113 -140.13)"/>
        <path id="路径_5271" data-name="路径 5271" class="cls-12" d="M125.065,379.166h13s-7.863,59.184-49,59l1-12S117.27,424.876,125.065,379.166Z" transform="translate(-72.497 -159.836)"/>
        <path id="路径_5272" data-name="路径 5272" class="cls-12" d="M1.186,0H3.913A1.161,1.161,0,0,1,5.074,1.161V12.343H0V1.161A1.161,1.161,0,0,1,1.186,0Z" transform="translate(0.051 268.085) rotate(-88.99)"/>
        <g id="组_3487" data-name="组 3487" class="cls-14" transform="translate(0.051 263.012)">
          <path id="路径_5273" data-name="路径 5273" d="M1.186,0H3.913A1.161,1.161,0,0,1,5.074,1.161V12.343H0V1.161A1.161,1.161,0,0,1,1.186,0Z" transform="translate(0 5.073) rotate(-88.99)"/>
        </g>
        <path id="路径_5274" data-name="路径 5274" class="cls-12" d="M1.941,0H5.709a1.9,1.9,0,0,1,1.9,1.9V12.349H0V1.941A1.9,1.9,0,0,1,1.941,0Z" transform="translate(0 279.221) rotate(-88.854)"/>
        <rect id="矩形_2402" data-name="矩形 2402" class="cls-12" width="12.932" height="4.884" transform="translate(7.404 276.061) rotate(-88.99)"/>
        <rect id="矩形_2403" data-name="矩形 2403" class="cls-11" width="7.89" height="17.556" transform="matrix(1, -0.012, 0.012, 1, 10.185, 262.445)"/>
        <path id="路径_5275" data-name="路径 5275" class="cls-10" d="M87.535,472.121a33.649,33.649,0,0,1-4,0,23.051,23.051,0,0,1-4,0,26.022,26.022,0,0,1,4,0h3C86.639,472.134,87.436,472.088,87.535,472.121Z" transform="translate(-68.967 -193.791)"/>
        <path id="路径_5276" data-name="路径 5276" class="cls-10" d="M87.513,467.3a33.634,33.634,0,0,1-4,0,23.472,23.472,0,0,1-4,0,26.018,26.018,0,0,1,4,0h3C86.617,467.308,87.415,467.262,87.513,467.3Z" transform="translate(-68.945 -191.97)"/>
        <path id="路径_5277" data-name="路径 5277" class="cls-10" d="M87.568,461.46a7.679,7.679,0,0,1-4,1c-1.3.061-2.713-.834-4-1a26.022,26.022,0,0,1,4,0h3C86.672,461.471,87.47,461.424,87.568,461.46Z" transform="translate(-69 -190.13)"/>
        <path id="路径_5278" data-name="路径 5278" class="cls-10" d="M87.469,456.671a7.678,7.678,0,0,1-4,1c-1.3.061-2.714-.829-4-1a26.022,26.022,0,0,1,4,0h3C86.573,456.685,87.37,456.638,87.469,456.671Z" transform="translate(-68.901 -188.342)"/>
        <path id="路径_5279" data-name="路径 5279" class="cls-10" d="M87.535,451.928a7.7,7.7,0,0,1-4,1c-1.3.057-2.711-.837-4-1a24.223,24.223,0,0,1,4,0h3C86.639,451.939,87.436,451.9,87.535,451.928Z" transform="translate(-68.967 -186.598)"/>
        <path id="路径_5280" data-name="路径 5280" class="cls-11" d="M97.379,464.1h0v0a38.966,38.966,0,0,1-1-5c-.273-1.706-.892-3.871-1-5a11.054,11.054,0,0,1,0-2,14.442,14.442,0,0,1,0,2c.159,1.116.746,3.3,1,5,.438,2.753.9,4.239,1,5h0C97.436,463.881,97.36,464.1,97.379,464.1Z" transform="translate(-74.812 -186.767)"/>
        <path id="路径_5281" data-name="路径 5281" class="cls-11" d="M105.688,462.24a59.086,59.086,0,0,1-2-6,59.183,59.183,0,0,1-2-6,59.094,59.094,0,0,1,2,6A59.192,59.192,0,0,1,105.688,462.24Z" transform="translate(-77.12 -185.911)"/>
        <path id="路径_5282" data-name="路径 5282" class="cls-11" d="M115.517,457.792a66.823,66.823,0,0,1-3-6c-1.586-3.222-3.082-5.962-3-6,1.106,1.864,2.091,4.032,3,6C114.109,455.008,115.593,457.754,115.517,457.792Z" transform="translate(-79.949 -184.462)"/>
        <path id="路径_5283" data-name="路径 5283" class="cls-11" d="M123.991,451.971a58.932,58.932,0,0,1-4-5c-1.308-1.677-2.87-4.2-4-6a61.64,61.64,0,0,1,4,5A59.375,59.375,0,0,1,123.991,451.971Z" transform="translate(-82.423 -182.641)"/>
        <path id="路径_5284" data-name="路径 5284" class="cls-11" d="M131.31,443.809a47.891,47.891,0,0,1-4-4c-1.52-1.451-3.638-2.4-5-4,1.6,1.367,3.557,2.473,5,4A49.952,49.952,0,0,1,131.31,443.809Z" transform="translate(-84.742 -180.479)"/>
        <path id="路径_5285" data-name="路径 5285" class="cls-11" d="M137.847,435.874c-.557-.231-1.5.334-2,0l-4-3-4-2c-.538-.276-.521-.63-1-1a14.6,14.6,0,0,1,2,1c.989.514,1.535,1.163,3,2s3.068,1.391,4,2A15.369,15.369,0,0,1,137.847,435.874Z" transform="translate(-86.279 -178.544)"/>
        <path id="路径_5286" data-name="路径 5286" class="cls-11" d="M141.671,427.124c-.535-.18-.51.28-1,0-.932-.457-2.567-1.334-4-2s-2.049-1.581-3-2a17.157,17.157,0,0,1-2-1,13.408,13.408,0,0,1,2,1c.977.362,1.554,1.334,3,2s3.093.493,4,1C141.178,426.375,141.225,426.776,141.671,427.124Z" transform="translate(-88.104 -175.794)"/>
        <path id="路径_5287" data-name="路径 5287" class="cls-11" d="M147.014,418.52a11.285,11.285,0,0,1-2,0c-1.078-.235-2.37-.531-4-1s-2.966-.619-4-1a14.166,14.166,0,0,1-2-1c.585.106,1.442-.206,2,0,1.046.323,2.4,1.505,4,2s2.941.708,4,1C145.6,418.635,146.46,418.305,147.014,418.52Z" transform="translate(-89.446 -173.19)"/>
        <path id="路径_5288" data-name="路径 5288" class="cls-11" d="M150.089,410.153c-1.965-.086-4.057.3-6,0a57.09,57.09,0,0,1-6-1c1.965.086,4.057-.3,6,0A53.375,53.375,0,0,1,150.089,410.153Z" transform="translate(-90.521 -170.823)"/>
        <path id="路径_5289" data-name="路径 5289" class="cls-11" d="M153.311,400.95a11.006,11.006,0,0,1-2,0c-1.053-.076-2.4.159-4,0s-2.96.14-4,0c-.57-.04-1.448-.85-2-1a12.317,12.317,0,0,1,2,0c1.053.076,2.4.841,4,1s2.953-.133,4,0A13.018,13.018,0,0,1,153.311,400.95Z" transform="translate(-91.743 -167.62)"/>
        <path id="路径_5290" data-name="路径 5290" class="cls-11" d="M155.834,393.3c-2.03.225-4.957-.011-7,0a52.647,52.647,0,0,1-6,0,56.182,56.182,0,0,1,6,0C150.873,393.195,153.8,393.195,155.834,393.3Z" transform="translate(-92.266 -164.975)"/>
        <path id="路径_5291" data-name="路径 5291" class="cls-11" d="M156.627,385.658a11.769,11.769,0,0,1-2,0c-1.04.108-2.408.994-4,1s-2.96-.9-4-1c-.565-.022-.452.138-1,0a3.355,3.355,0,0,1,1,0c1.04.038,2.414.013,4,0s2.966.044,4,0A13.258,13.258,0,0,1,156.627,385.658Z" transform="translate(-93.06 -162.494)"/>
        <path id="路径_5292" data-name="路径 5292" class="cls-13" d="M127.74,382.179c.009.052.009-.052,0,0h0c0,.412.044,1.22,0,2a53.3,53.3,0,0,1-1,7,46.226,46.226,0,0,1-3,9,47.944,47.944,0,0,1-14,19,51.675,51.675,0,0,1-8,6,47.394,47.394,0,0,1-6,3c-.723.292-1.613-.165-2,0v1c-.05.021.055,0,0,0,.044-.032-.052.014,0,0v-1c.381-.159,1.283.279,2,0a53.662,53.662,0,0,0,6-3,50.567,50.567,0,0,0,25-34,59.182,59.182,0,0,0,1-7c.07-.774-.032-1.588,0-2h0C127.729,382.1,127.713,382.258,127.74,382.179Z" transform="translate(-74.172 -160.849)"/>
        <path id="路径_5293" data-name="路径 5293" class="cls-12" d="M224.154,243.382s-7.264-9.364-23-8c0,0,16.425-12.359,7-25,0,0,19.772,5.281,20-20,0,0,3.922,23.685,23,17,0,0,1.8,18.444,15,15-6.387,6.279-13.268,11.97-12,20" transform="translate(-113.586 -91.519)"/>
        <g id="组_3488" data-name="组 3488" class="cls-16" transform="translate(87.568 98.863)">
          <path id="路径_5294" data-name="路径 5294" class="cls-13" d="M224.154,243.382s-7.264-9.364-23-8c0,0,16.425-12.359,7-25,0,0,19.772,5.281,20-20,0,0,3.922,23.685,23,17,0,0,1.8,18.444,15,15-6.387,6.279-13.268,11.97-12,20" transform="translate(-201.154 -190.382)"/>
        </g>
        <path id="路径_5295" data-name="路径 5295" class="cls-12" d="M229.768,249.157s-.359-11.1-13-10c0,0,11.567-6.846,4-17,0,0,16.816,5.309,17-15,0,0,2.67,18.353,18,13,0,0-1.611,13.772,9,11-5.131,5.074-8.015,10.531-7,17" transform="translate(-119.2 -97.272)"/>
        <g id="组_3489" data-name="组 3489" class="cls-17" transform="translate(97.568 109.885)">
          <path id="路径_5296" data-name="路径 5296" class="cls-13" d="M229.768,249.157s-.359-11.1-13-10c0,0,11.567-6.846,4-17,0,0,16.816,5.309,17-15,0,0,2.67,18.353,18,13,0,0-1.611,13.772,9,11-5.131,5.074-8.015,10.531-7,17" transform="translate(-216.768 -207.157)"/>
        </g>
        <path id="路径_5297" data-name="路径 5297" class="cls-12" d="M265.6,160.369c-.042.136-.941.87-1,1v1c-.222.482-.715,1.3-1,2s-.677,1.106-1,2-.651,1.941-1,3-.632,1.8-1,3a81.808,81.808,0,0,0-2,8,76.877,76.877,0,0,0-1,8c-.076,1.268.013,2.884,0,4s-.032,2.055,0,3-.025,2.271,0,3-.044.5,0,1-.019,1.689,0,2c.016.143.016-.143,0,0-.032-.14.014.143,0,0-.03-.313.059-.5,0-1-.063-.526.038-1.271,0-2s.006-2.08,0-3-.051-1.877,0-3-.063-2.744,0-4a71.057,71.057,0,0,1,3-16c.374-1.2.613-1.953,1-3s.645-2.118,1-3,.7-1.309,1-2,.759-1.512,1-2v-1C264.644,161.241,265.53,160.485,265.6,160.369Z" transform="translate(-134.032 -80.59)"/>
        <path id="路径_5298" data-name="路径 5298" class="cls-12" d="M193.163,151.287a23.155,23.155,0,0,0-4-3,15.956,15.956,0,0,0-4-1,2.157,2.157,0,0,1,1,0,10.032,10.032,0,0,1,3,1,13.3,13.3,0,0,1,3,2A4.14,4.14,0,0,1,193.163,151.287Z" transform="translate(-107.595 -75.569)"/>
        <path id="路径_5299" data-name="路径 5299" class="cls-12" d="M205.749,197.778c.1.073-.078-.1,0,0l1,1c.634.634.985,1.751,2,3s2.776,2.262,4,4,2.77,3.882,4,6,2.087,4.078,3,6,1.429,3.5,2,5a38.576,38.576,0,0,1,1,4c.118.4.915.738,1,1,.042.114-.012-.121,0,0-.063-.105.034.118,0,0l-1-1a39.862,39.862,0,0,0-1-4c-.6-1.484-2.093-3.085-3-5s-1.776-3.875-3-6-1.808-4.249-3-6-3-2.744-4-4-1.417-2.315-2-3l-1-1C205.658,197.688,205.814,197.886,205.749,197.778Z" transform="translate(-115.18 -93.931)"/>
        <path id="路径_5300" data-name="路径 5300" class="cls-12" d="M270.811,202.647c-.03.1-.941-.09-1,0v1c-.2.342-.753.493-1,1s.285,1.359,0,2a31.643,31.643,0,0,0-2,4,52.551,52.551,0,0,0-3,12,46.758,46.758,0,0,0,0,5c0,.7-.032,1.429,0,2s-.025.607,0,1-.013.734,0,1a8.574,8.574,0,0,1,0,1c-.03-.1.007-.895,0-1-.032-.241.044-.638,0-1s.025-.442,0-1,0-1.29,0-2a46.09,46.09,0,0,1,0-5c.363-4.027.6-8.205,2-12a36.578,36.578,0,0,1,2-4c.3-.634.746-1.505,1-2s.791-.638,1-1-.127-.791,0-1C269.869,202.56,270.734,202.716,270.811,202.647Z" transform="translate(-136.243 -95.79)"/>
        <path id="路径_5301" data-name="路径 5301" class="cls-12" d="M289.681,206.066a3.24,3.24,0,0,1-1,2c-2.209,1.9-4.638,3.42-6,6-.256.55-.686,1.481-1,2a10.888,10.888,0,0,1,1-2,20.263,20.263,0,0,1,2-4c.918-1.155,2.841-2.086,4-3C289.146,206.664,289.128,206.333,289.681,206.066Z" transform="translate(-143.113 -97.229)"/>
        <path id="路径_5302" data-name="路径 5302" class="cls-12" d="M210.541,232.393c.553.26,1.525-.385,2,0a20.261,20.261,0,0,1,3,3,27.517,27.517,0,0,1,3,4c.335.512-.2,1.421,0,2-.36-.49-.693-1.476-1-2a19.5,19.5,0,0,0-2-3,27.31,27.31,0,0,0-3-3C212.049,233.038,210.983,232.807,210.541,232.393Z" transform="translate(-116.973 -106.506)"/>
        <path id="路径_5303" data-name="路径 5303" class="cls-12" d="M202.04,222.018c-.051.089-1.249-.556-3-1a12.074,12.074,0,0,1-3-1C198.282,219.764,200.2,220.714,202.04,222.018Z" transform="translate(-111.472 -102.164)"/>
        <path id="路径_5304" data-name="路径 5304" class="cls-18" d="M184.563,189.144c.093-.368-.185-.669,0-1v-1l1-1h1c.327-.192.636.107,1,0v-1h2v1c.367.092.668-.182,1,0l1-1,1,2v1c.2.324-.1.634,0,1h1v2h-1c-.093.366.185.671,0,1v1l-1,1-1-1c-.321.2-.636.9-1,1v1h-2v-1c-.368-.093-.669-.815-1-1l-1,1-1-1v-1c-.2-.321.1-.636,0-1h-1v-2Zm2,1a2,2,0,1,0,2-2c-.494.01-.658-.357-1,0A4.486,4.486,0,0,0,186.563,190.144Z" transform="translate(-106.995 -89.347)"/>
        <path id="路径_5305" data-name="路径 5305" class="cls-5" d="M299.643,263.831c.068-.27-.134-.756,0-1l-1-1,1-1,1,1c.239-.142.733-.923,1-1h1c.271.065.757.863,1,1l1-1,1,1-1,1c.143.238.924.733,1,1h0v1h0c-.068.27-.866.756-1,1l1,1h-2c-.24.143-.731-.076-1,0v1h-1v-1c-.27-.068-.756.134-1,0l-1,1-1-1,1-1c-.143-.24.076-.731,0-1h-1v-1Zm1,0a2.693,2.693,0,0,0,2,2c.757-.012,1.012-1.243,1-2s-.243-1.012-1-1S300.631,263.075,300.643,263.831Z" transform="translate(-149.075 -116.892)"/>
        <rect id="矩形_2404" data-name="矩形 2404" class="cls-15" width="6.615" height="2.994" transform="translate(134.505 97.545) rotate(-64.59)"/>
        <path id="路径_5306" data-name="路径 5306" class="cls-11" d="M275.077,184.847c.266.087.747-.12,1,0,.482.2,1.188.632,2,1h0c.71-1.554.9-3.679,2-6-.07-.2.019.051,0,0h-1l-1-1h0c-.818,1.7-1.474,2.96-2,4-.254.482-.829.658-1,1-.073.16.1.856,0,1a9.944,9.944,0,0,1,0-1c.146-.342.791-.518,1-1,.476-1.072,1.169-2.23,2-4h1l1,1h1c0-.051.07.2,0,0-1.1,2.321-2.239,4.484-3,6h0c-.85-.419-1.55-.759-2-1C275.841,184.734,275.292,185,275.077,184.847Z" transform="translate(-140.509 -87.065)"/>
        <path id="路径_5307" data-name="路径 5307" class="cls-15" d="M281.013,175.7a2.487,2.487,0,0,0-2,0c-.689.245-.687.339-1,1l5,3a5.454,5.454,0,0,0,0-3C282.767,176.007,281.676,176.01,281.013,175.7Z" transform="translate(-141.445 -85.926)"/>
        <path id="路径_5308" data-name="路径 5308" class="cls-11" d="M280.893,175.649a7.316,7.316,0,0,1,1,0c.268.148-.2.771,0,1,.32.359.9.528,1,1a3.463,3.463,0,0,1,0,2h-1l-2-1-3-2h0c.277-.547,1.453-.723,2-1,.425-.218.523-.018,1,0a3.029,3.029,0,0,1,1,0c.2.089.013-.013,0,0a3.9,3.9,0,0,0-1,0c-.445.009-.613-.22-1,0a1.985,1.985,0,0,0-1,1h0l2,1,3,1-1,1c.245-.5,1.1-1.448,1-2-.078-.434-.732-.65-1-1A7.283,7.283,0,0,0,280.893,175.649Z" transform="translate(-141.325 -85.878)"/>
        <path id="路径_5309" data-name="路径 5309" class="cls-15" d="M282.853,176.739c.176-.648.509-.563,0-1" transform="translate(-143.285 -85.969)"/>
        <path id="路径_5310" data-name="路径 5310" class="cls-11" d="M282.849,175.73c.044-.082-.178-.59,0,0s.082,1.038,0,1,.171.469,0,0A1.384,1.384,0,0,1,282.849,175.73Z" transform="translate(-143.28 -85.961)"/>
        <path id="路径_5311" data-name="路径 5311" class="cls-11" d="M278.41,180.432c.507.131,1.548-.264,2,0,.5.165.562.707,1,1-.542.013-.53.27-1,0A12.16,12.16,0,0,1,278.41,180.432Z" transform="translate(-141.842 -87.654)"/>
        <path id="路径_5312" data-name="路径 5312" class="cls-11" d="M278.214,180.834c.509.148.545.727,1,1a11.836,11.836,0,0,1,2,1c-.542.02-1.531-.727-2-1C278.409,181.428,278.138,180.91,278.214,180.834Z" transform="translate(-141.646 -88.055)"/>
        <path id="路径_5313" data-name="路径 5313" class="cls-11" d="M278.026,182.24c.507.131.548.736,1,1,.5.167.561-.292,1,0-.541.013-.529.267-1,0C278.214,182.872,277.975,182.31,278.026,182.24Z" transform="translate(-141.458 -88.459)"/>
        <path id="路径_5314" data-name="路径 5314" class="cls-11" d="M276.833,183.643c.509.148,1.545-.273,2,0,.5.164.564.709,1,1-.542.02-.531.273-1,0A15.722,15.722,0,0,1,276.833,183.643Z" transform="translate(-141.265 -88.858)"/>
        <path id="路径_5315" data-name="路径 5315" class="cls-11" d="M276.64,184.049c.509.133.545.737,1,1a12.605,12.605,0,0,1,2,1C278.564,185.98,277.415,184.8,276.64,184.049Z" transform="translate(-141.072 -89.263)"/>
        <path id="路径_5316" data-name="路径 5316" class="cls-11" d="M276.443,185.455c.509.131.546.735,1,1,.5.166.564-.293,1,0A2.411,2.411,0,0,1,276.443,185.455Z" transform="translate(-140.875 -89.667)"/>
        <path id="路径_5317" data-name="路径 5317" class="cls-11" d="M275.254,186.857c.51.147,1.546-.274,2,0,.5.164.564.709,1,1-.54.02-.534.273-1,0A14.811,14.811,0,0,1,275.254,186.857Z" transform="translate(-140.686 -90.067)"/>
        <rect id="矩形_2405" data-name="矩形 2405" class="cls-15" width="6.615" height="2.994" transform="matrix(0.911, -0.413, 0.413, 0.911, 68.74, 145.97)"/>
        <path id="路径_5318" data-name="路径 5318" class="cls-11" d="M178.046,262.542c-.146-.239.116-.745,0-1-.235-.463-.613-1.22-1-2h0c-1.548.729-3.666,1.941-6,3-.076.2.013-.051,0,0h0l1,1c.108.235-.108-.228,0,0l1,2h-1c1.731-.774,3.915-1.512,5-2l1-1c.16-.075-.17.047,0,0-.123.092.142-.06,0,0l-1,1c-1.053.507-3.192,1.182-5,2h0c-.2-.419.241-1.55,0-2-.108-.228-.892.235-1,0v-1h0c2.34-1.066,4.427-2.321,6-3h0c.374.875.81,1.524,1,2C178.176,261.78,177.97,262.282,178.046,262.542Z" transform="translate(-102.478 -116.608)"/>
        <path id="路径_5319" data-name="路径 5319" class="cls-15" d="M167.947,266.618c.3.667,1.315.742,2,1a2.484,2.484,0,0,0,2,0l-2-5a4.853,4.853,0,0,0-2,2A2.479,2.479,0,0,0,167.947,266.618Z" transform="translate(-101.379 -117.678)"/>
        <path id="路径_5320" data-name="路径 5320" class="cls-11" d="M167.9,266.486a3.694,3.694,0,0,0,0-1,3.136,3.136,0,0,1,0-1c-.011-.478-.227-.58,0-1,.29-.553,1.438-.729,2-1h0c.362.78.594,1.087,1,2s.645,2.195,1,3h0a3.5,3.5,0,0,1-2,0c-.472-.1-.641.32-1,0a6.009,6.009,0,0,1-1-1c-.1-.2-.019.006,0,0a7.18,7.18,0,0,0,1,1,3.026,3.026,0,0,0,3,0h0l-1-2c-.393-.888-.645-2.195-1-3h0c-.929.417-1.957.983-2,2A15.247,15.247,0,0,0,167.9,266.486Z" transform="translate(-101.329 -117.546)"/>
        <path id="路径_5321" data-name="路径 5321" class="cls-15" d="M169.217,266.008c-.552.38-.106,1.338,0,2" transform="translate(-101.649 -119.067)"/>
        <path id="路径_5322" data-name="路径 5322" class="cls-11" d="M169.141,268c-.082.038-.241-.442,0-1a1.287,1.287,0,0,0,0-1,1.432,1.432,0,0,1,0,1C168.951,267.454,169.236,267.979,169.141,268Z" transform="translate(-101.573 -119.057)"/>
        <path id="路径_5323" data-name="路径 5323" class="cls-11" d="M173.642,266c-.3-.428.176-.506,0-1-.274-.45-.853-.494-1-1A2.366,2.366,0,0,1,173.642,266Z" transform="translate(-103.074 -118.061)"/>
        <path id="路径_5324" data-name="路径 5324" class="cls-11" d="M175.048,265.813c-.3-.432-.82-.506-1-1-.271-.449.15-1.5,0-2a15.769,15.769,0,0,1,1,2C175.339,265.28,175.058,265.262,175.048,265.813Z" transform="translate(-103.48 -117.877)"/>
        <path id="路径_5325" data-name="路径 5325" class="cls-11" d="M176.45,265.629a11.86,11.86,0,0,1-1-2c-.274-.45-.853-.494-1-1C175.226,263.379,176.35,264.554,176.45,265.629Z" transform="translate(-103.882 -117.693)"/>
        <path id="路径_5326" data-name="路径 5326" class="cls-11" d="M176.863,265.442c-.3-.433.181-1.506,0-2-.273-.45-.852-.495-1-1,.417.332.811.5,1,1C177.155,263.912,176.873,264.889,176.863,265.442Z" transform="translate(-104.296 -117.506)"/>
        <path id="路径_5327" data-name="路径 5327" class="cls-11" d="M178.273,264.259c-.3-.43-.823-.5-1-1-.274-.448.147-1.5,0-2A4.624,4.624,0,0,1,178.273,264.259Z" transform="translate(-104.705 -117.326)"/>
        <path id="路径_5328" data-name="路径 5328" class="cls-11" d="M179.679,264.073a12.093,12.093,0,0,1-1-2c-.273-.45.148-.495,0-1,.417.332-.189.5,0,1A5.516,5.516,0,0,1,179.679,264.073Z" transform="translate(-105.111 -117.14)"/>
        <path id="路径_5329" data-name="路径 5329" class="cls-11" d="M181.089,263.887a34.028,34.028,0,0,1-2-3c.07-.057.619.22,1,1A5.645,5.645,0,0,1,181.089,263.887Z" transform="translate(-105.521 -116.955)"/>
        <path id="路径_5330" data-name="路径 5330" class="cls-12" d="M201.2,142.646s8.085,7.288,10,12a85.111,85.111,0,0,1,3,9s1.774-3.463,4,0,13.269,45.169,15,61h6s-2.516-26.032-4-29a10.851,10.851,0,0,0-3-4s-1.763-11.269-3-13a11.089,11.089,0,0,0-3-3s-1.784-11.533-5-14a5.731,5.731,0,0,0-6-1S213.011,147.479,201.2,142.646Z" transform="translate(-113.633 -73.856)"/>
        <path id="路径_5331" data-name="路径 5331" class="cls-10" d="M295.561,231.058a27.47,27.47,0,0,0-4,1c-1.4.7-2.7,2.128-4,3a4.464,4.464,0,0,1,1-1,15.32,15.32,0,0,1,6-3A2.42,2.42,0,0,1,295.561,231.058Z" transform="translate(-144.993 -106.181)"/>
        <path id="路径_5332" data-name="路径 5332" class="cls-10" d="M295.4,229.277c-1.527.584-3.544,1.257-5,2a24.767,24.767,0,0,1-4,2,4.921,4.921,0,0,1,1-1,18.836,18.836,0,0,1,3-2c1.022-.57,2.884-.651,4-1C294.852,229.1,294.91,229.315,295.4,229.277Z" transform="translate(-144.829 -105.403)"/>
        <path id="路径_5333" data-name="路径 5333" class="cls-10" d="M295.143,234.134a6.763,6.763,0,0,0-3,0,9.253,9.253,0,0,0-3,2A8.832,8.832,0,0,1,295.143,234.134Z" transform="translate(-145.575 -107.253)"/>
        <path id="路径_5334" data-name="路径 5334" class="cls-11" d="M274.9,258.117c-1.123-8.879,1.915-19.015,9-24l1,1s-8.647,5.286-8,23" transform="translate(-140.33 -107.204)"/>
        <path id="路径_5335" data-name="路径 5335" class="cls-10" d="M213.381,251.741c-1.177.4-1.911,1.4-3,2a20.778,20.778,0,0,0-3,2A8.355,8.355,0,0,1,213.381,251.741Z" transform="translate(-115.813 -113.824)"/>
        <path id="路径_5336" data-name="路径 5336" class="cls-10" d="M212.909,250.287c-1.124.509-1.826,1.622-3,2a40.016,40.016,0,0,1-4,1c1.057-.655,2.816-.618,4-1C211.05,251.795,211.683,250.486,212.909,250.287Z" transform="translate(-115.341 -113.375)"/>
        <path id="路径_5337" data-name="路径 5337" class="cls-11" d="M235.448,265.328l-3-1c.692-2.6-.9-5.312-3-7-.273,1.985-1.176,4.17-3,5a4.5,4.5,0,0,1-4,0c-1.179-.6-2.722-1.706-3-3-.308-2.036,1.212-3.978,3-5a5.23,5.23,0,0,1,2-1c-.072-.066.08.056,0,0-2.831-2.047-7.062-2.89-10-1l-1-2c4.065-2.672,9.083-2.885,13,0a9.211,9.211,0,0,1,3,3A10.167,10.167,0,0,1,235.448,265.328Zm-10-9c-.611-.019-.465-.3-1,0a2.3,2.3,0,0,0-1,2c.1.358-.336.837,0,1a3.216,3.216,0,0,0,2,0c1.049-.566,1.164-1.819,1-3h0A5.889,5.889,0,0,0,225.448,256.328Z" transform="translate(-117.88 -112.398)"/>
        <path id="路径_5338" data-name="路径 5338" class="cls-12" d="M207.33,182.416c.3.122.732.823,1,1a14.663,14.663,0,0,1,2,1c1.065.747,2.016,2.15,3,3a42.522,42.522,0,0,1,7,7,31.78,31.78,0,0,1,2,3,19.736,19.736,0,0,1,1,2c.149.283-.091.693,0,1-.184-.261.132-.709,0-1-.285-.552-1.448-1.055-2-2s-1.15-1.814-2-3a40.78,40.78,0,0,0-6-7c-1.085-.989-2.144-2.366-3-3a14.051,14.051,0,0,0-2-1A11.427,11.427,0,0,1,207.33,182.416Z" transform="translate(-115.762 -88.616)"/>
        <path id="路径_5339" data-name="路径 5339" class="cls-11" d="M186.85,294.168h1v32h-1c-3.153,0-5-2.847-5-6v-20C181.864,297.026,183.707,294.168,186.85,294.168Z" transform="translate(-106.282 -129.115)"/>
        <path id="路径_5340" data-name="路径 5340" class="cls-11" d="M336.34,294.168h0a6.281,6.281,0,0,1,6,6v20a6.281,6.281,0,0,1-6,6h0Z" transform="translate(-162.773 -129.115)"/>
        <rect id="矩形_2406" data-name="矩形 2406" class="cls-12" width="95" height="70" rx="14.12" transform="translate(79.568 159.13)"/>
        <path id="路径_5341" data-name="路径 5341" class="cls-13" d="M270.26,295.834a22.208,22.208,0,0,0-22,22h43C291.26,305.841,282.252,295.83,270.26,295.834Z" transform="translate(-130.692 -129.799)"/>
        <path id="路径_5342" data-name="路径 5342" class="cls-15" d="M307.973,328.747h2a4.522,4.522,0,0,1,1,0,5.35,5.35,0,0,1-1,0h-5c-.086.01.086.01,0,0,.086-.014-.086-.014,0,0h3Z" transform="translate(-151.405 -141.692)"/>
        <path id="路径_5343" data-name="路径 5343" class="cls-15" d="M306.3,317.23a9.04,9.04,0,0,1,3-1,9.738,9.738,0,0,1-3,2,20.152,20.152,0,0,1-3,1A26.572,26.572,0,0,1,306.3,317.23Z" transform="translate(-150.736 -137.192)"/>
        <path id="路径_5344" data-name="路径 5344" class="cls-15" d="M300.442,308.511c1.205-1.37,1.918-2.07,2-2s-.77.655-2,2c-.715.841-2.165,1.279-3,2C298.073,309.607,299.683,309.312,300.442,308.511Z" transform="translate(-148.874 -133.49)"/>
        <path id="路径_5345" data-name="路径 5345" class="cls-15" d="M291.717,302.14a13.408,13.408,0,0,1,1-3,15.693,15.693,0,0,1-1,4,20.756,20.756,0,0,1-1,3A33.375,33.375,0,0,1,291.717,302.14Z" transform="translate(-146.149 -131.128)"/>
        <path id="路径_5346" data-name="路径 5346" class="cls-15" d="M281.452,300.335a22.047,22.047,0,0,1,0-3,19.742,19.742,0,0,1,0,3,31.4,31.4,0,0,1,0,4A30.79,30.79,0,0,1,281.452,300.335Z" transform="translate(-142.884 -130.326)"/>
        <path id="路径_5347" data-name="路径 5347" class="cls-15" d="M270.046,303.128a16.241,16.241,0,0,1-1-4,6.584,6.584,0,0,1,2,3,31.6,31.6,0,0,1,1,4C271.549,305.148,270.393,304.17,270.046,303.128Z" transform="translate(-138.478 -131.116)"/>
        <path id="路径_5348" data-name="路径 5348" class="cls-15" d="M261.116,308.511c-1.23-1.345-2.082-1.924-2-2s.795.63,2,2a16.476,16.476,0,0,1,2,2A15.925,15.925,0,0,1,261.116,308.511Z" transform="translate(-134.548 -133.49)"/>
        <path id="路径_5349" data-name="路径 5349" class="cls-15" d="M254.335,318.244a9.18,9.18,0,0,1-3-2,7.669,7.669,0,0,1,3,1,26.667,26.667,0,0,1,3,2A20.22,20.22,0,0,1,254.335,318.244Z" transform="translate(-131.767 -137.207)"/>
        <path id="路径_5350" data-name="路径 5350" class="cls-15" d="M251.326,328.762h-2a5.35,5.35,0,0,1-1,0,4.522,4.522,0,0,1,1,0h5c.084-.015.916-.015,1,0-.084.011-.916.011-1,0h-3Z" transform="translate(-130.758 -141.706)"/>
        <path id="路径_5351" data-name="路径 5351" class="cls-13" d="M221.574,300.368c0,1.595-.405,3-2,3a3,3,0,0,1,0-6C221.166,297.368,221.571,298.777,221.574,300.368Z" transform="translate(-119.006 -130.361)"/>
        <path id="路径_5352" data-name="路径 5352" class="cls-10" d="M221.574,314.379c0,1.595-.405,3-2,3a3,3,0,0,1,0-6C221.166,311.379,221.571,312.787,221.574,314.379Z" transform="translate(-119.006 -135.344)"/>
        <path id="路径_5353" data-name="路径 5353" class="cls-11" d="M277.229,367h0v-2c0-1.376.032-3.431,0-6,0-5.156.025-11.835,0-21h-59v29h55l-12,1h-43V337h0l59,1h0c-.032,9.2.019,15.831,0,21v8Z" transform="translate(-119.661 -144.857)"/>
        <path id="路径_5354" data-name="路径 5354" class="cls-11" d="M204.145,393.711h75v1a4.035,4.035,0,0,1-4,4h-67a4.035,4.035,0,0,1-4-4Z" transform="translate(-114.577 -165.381)"/>
        <g id="组_3490" data-name="组 3490" class="cls-14" transform="translate(151.549 196.088)">
          <path id="路径_5355" data-name="路径 5355" d="M301.751,343.849a1.752,1.752,0,0,0,1,2,1.9,1.9,0,0,0,2-1,1.677,1.677,0,0,0,0-2c.023.541.342.581,0,1a3.336,3.336,0,0,1-2,1,1.15,1.15,0,0,1-1-1" transform="translate(-301.733 -342.849)"/>
        </g>
        <path id="路径_5356" data-name="路径 5356" class="cls-15" d="M304.686,342.132a2.266,2.266,0,0,1-1,2c-.657.274-1.5-.5-2-1s-.274-.343,0-1,.288-2,1-2A2.207,2.207,0,0,1,304.686,342.132Z" transform="translate(-150.117 -146.047)"/>
        <path id="路径_5357" data-name="路径 5357" class="cls-11" d="M304.6,342.049c-.047-.135.029.14,0,0-.112-.356-.7-.779-1-1-.447-.318-.486-.191-1,0-.627.234-1,.33-1,1s.373,1.766,1,2c.514.191.553-.682,1-1,.3-.221.888.356,1,0,.03-.139-.046-.865,0-1a5.585,5.585,0,0,1,0,1c-.077.413-.668.743-1,1-.5.4-.393.215-1,0-.753-.273-2-1.2-2-2s1.247-1.727,2-2c.607-.215.5.6,1,1,.332.257.923.587,1,1C304.652,342.334,304.614,342.049,304.6,342.049Z" transform="translate(-150.027 -145.964)"/>
        <path id="路径_5358" data-name="路径 5358" class="cls-11" d="M304.315,341.693c.032.089-.613.594-1,1s.089,1.032,0,1a.678.678,0,0,1,0-1C303.759,342.223,304.3,341.6,304.315,341.693Z" transform="translate(-150.747 -146.609)"/>
        <path id="路径_5359" data-name="路径 5359" class="cls-11" d="M304.233,343.8c-.076.051-.569-.715-1-1s-.019.1,0,0a.778.778,0,0,1,1,0C304.722,343.135,304.31,343.761,304.233,343.8Z" transform="translate(-150.666 -146.715)"/>
        <g id="组_3491" data-name="组 3491" class="cls-14" transform="translate(152.551 217.152)">
          <path id="路径_5360" data-name="路径 5360" d="M303.224,378.361c-.093.846.191.738,1,1,.811.223,1.524.694,2,0a3.587,3.587,0,0,0,0-3,4.4,4.4,0,0,1-1,2c-.352.414-.461.065-1,0a1.15,1.15,0,0,1-1-1" transform="translate(-303.207 -376.361)"/>
        </g>
        <circle id="椭圆_138" data-name="椭圆 138" class="cls-15" cx="2" cy="2" r="2" transform="translate(151.568 216.151)"/>
        <path id="路径_5361" data-name="路径 5361" class="cls-11" d="M306.071,376.557a6.328,6.328,0,0,0,0-1c-.111-.356-.7.22-1,0-.447-.316-.486-1.189-1-1-.581.228-.959,1.377-1,2s-.547.7,0,1a2.119,2.119,0,0,0,2,0c.3-.219.891-.643,1-1,.082-.254-.032,0,0,0s.057-.285,0,0c-.078.414-.669.74-1,1-.5.4-.394,1.216-1,1-.753-.273-2-1.2-2-2s1.247-1.727,2-2c.607-.205.5-.4,1,0,.332.257.923.587,1,1A4.175,4.175,0,0,1,306.071,376.557Z" transform="translate(-150.503 -158.407)"/>
        <path id="路径_5362" data-name="路径 5362" class="cls-11" d="M305.785,376.2c.032.089-.619.594-1,1s.1,1.025,0,1a.673.673,0,0,1,0-1C305.229,376.737,305.766,376.118,305.785,376.2Z" transform="translate(-151.217 -159.051)"/>
        <path id="路径_5363" data-name="路径 5363" class="cls-11" d="M305.709,377.3a.98.98,0,0,1-1,0,3.455,3.455,0,0,1-1-1c.019-.1.505.664,1,1A.993.993,0,0,0,305.709,377.3Z" transform="translate(-151.141 -159.157)"/>
        <g id="组_3492" data-name="组 3492" class="cls-14" transform="translate(101.551 196.089)">
          <path id="路径_5364" data-name="路径 5364" d="M222.825,343.834a1.76,1.76,0,0,0,1,2,1.9,1.9,0,0,0,2-1,1.685,1.685,0,0,0,0-2c.023.542-.654.582-1,1s-.461,1.065-1,1a1.144,1.144,0,0,1-1-1" transform="translate(-222.808 -342.834)"/>
        </g>
        <circle id="椭圆_139" data-name="椭圆 139" class="cls-15" cx="2" cy="2" r="2" transform="translate(100.568 194.085)"/>
        <path id="路径_5365" data-name="路径 5365" class="cls-11" d="M225.675,342.034h0c-.108-.358-.7-.782-1-1-.444-.317-.488-.191-1,0-.627.234-1,.33-1,1s.373,1.766,1,2c.514.189.553-.684,1-1,.3-.219.891.357,1,0a6.34,6.34,0,0,0,0-1,3.828,3.828,0,0,1,0,1c-.08.412-.67.741-1,1-.5.4-.393.214-1,0-.753-.273-2-1.2-2-2s1.247-1.727,2-2c.607-.214.5.6,1,1,.33.259.92.588,1,1C225.716,342.18,225.721,341.89,225.675,342.034Z" transform="translate(-121.107 -145.949)"/>
        <path id="路径_5366" data-name="路径 5366" class="cls-11" d="M225.386,341.684a13.853,13.853,0,0,1-1,1c-.381.406.1,1.032,0,1a.674.674,0,0,1,0-1A8.127,8.127,0,0,1,225.386,341.684Z" transform="translate(-121.818 -146.601)"/>
        <path id="路径_5367" data-name="路径 5367" class="cls-11" d="M225.31,343.784c-.082.051-.569-.715-1-1s-1.019.1-1,0a.785.785,0,0,1,1,0C224.8,343.114,225.386,343.74,225.31,343.784Z" transform="translate(-121.742 -146.7)"/>
        <g id="组_3493" data-name="组 3493" class="cls-14" transform="translate(100.548 217.151)">
          <path id="路径_5368" data-name="路径 5368" d="M221.611,377.237a1.745,1.745,0,0,0,1,2,3.6,3.6,0,0,0,3-1,1.676,1.676,0,0,0,0-2,4.463,4.463,0,0,1-1,2c-.353.416-.458.064-1,0a1.15,1.15,0,0,1-1-1" transform="translate(-221.592 -376.237)"/>
        </g>
        <ellipse id="椭圆_140" data-name="椭圆 140" class="cls-15" cx="2" cy="1.5" rx="2" ry="1.5" transform="translate(100.568 216.148)"/>
        <path id="路径_5369" data-name="路径 5369" class="cls-11" d="M225.45,376.433a6.357,6.357,0,0,1-1-1c-.116-.354.3-.776,0-1a2.718,2.718,0,0,0-2,0c-.581.228-.959,1.377-1,2s.453.7,1,1a2.12,2.12,0,0,0,2,0c.3-.221-.112-.644,0-1,.03-.139.954.135,1,0h0c-.076.415-.668.74-1,1a2.33,2.33,0,0,1-2,0c-.757-.271-1-.2-1-1s.243-1.729,1-2a2.33,2.33,0,0,1,2,0c.332.26.924.585,1,1A4.187,4.187,0,0,1,225.45,376.433Z" transform="translate(-120.882 -158.284)"/>
        <path id="路径_5370" data-name="路径 5370" class="cls-11" d="M225.175,376.078a12.58,12.58,0,0,1-1,1c-.387.406-.911.025-1,0s.556-.537,1-1A.666.666,0,0,1,225.175,376.078Z" transform="translate(-121.607 -158.931)"/>
        <path id="路径_5371" data-name="路径 5371" class="cls-11" d="M225.094,377.165a.993.993,0,0,1-1,0,3.455,3.455,0,0,1-1-1,.778.778,0,0,1,1,0A3.7,3.7,0,0,1,225.094,377.165Z" transform="translate(-121.526 -159.018)"/>
        <g id="组_3494" data-name="组 3494" class="cls-14" transform="translate(98.568 222.172)">
          <path id="路径_5372" data-name="路径 5372" d="M218.32,385.309c6.863,1.49,14.586,1.362,22,1,3.564-.178,8.146-.15,11,2,.634.469,1.264.273,2,0,1.066-.4.858-1.962,2-2,.571,0,.816.461,1,1a14.334,14.334,0,0,0,1,2c.292.495.543.349,1,0,.723-.552-.273-1.131,0-2s2.125-1.336,3-1,1.068,1.14,2,1a6.375,6.375,0,0,0,2-1c1.668-1.021,4.021-.962,6-1,2.061-.032,3.939-.962,6-1Z" transform="translate(-218.32 -384.309)"/>
        </g>
        <path id="路径_5373" data-name="路径 5373" class="cls-11" d="M275.661,349.508c-.1.051.112-.025,0,0-.313.083-.7.876-1,1-1.1.449-2.047.287-3,1-1.237.863-2.269,2.947-4,4a9.8,9.8,0,0,1-3,1,23.1,23.1,0,0,1-4,0,12.394,12.394,0,0,0-6,2,40.636,40.636,0,0,0-4,3,17.137,17.137,0,0,0-3,2,8.424,8.424,0,0,1-1,1c-.025-.019-.127.184,0,0,.2-.267.774-.756,1-1,.808-.892,1-2.325,2-3,1.48-.991,3.421-1.174,5-2a27.622,27.622,0,0,1,3-2c1.075-.395,1.855,0,3,0,1.115.032,2.9-.808,4-1a5.3,5.3,0,0,0,2-1c1.7-1.021,3.738-2.156,5-3,.975-.7,1.871-.588,3-1,.307-.112.678-.944,1-1C275.769,349.467,275.546,349.518,275.661,349.508Z" transform="translate(-130.093 -149.38)"/>
        <path id="路径_5374" data-name="路径 5374" class="cls-11" d="M262.167,354.7a9.63,9.63,0,0,1-2,0,23.3,23.3,0,0,1-4-1,26.873,26.873,0,0,1-4-2,11.381,11.381,0,0,1-2-1c.564.258,1.47-.321,2,0,2.609,1.425,5.131,3.221,8,4C260.776,354.825,261.581,354.487,262.167,354.7Z" transform="translate(-131.599 -149.592)"/>
        <path id="路径_5375" data-name="路径 5375" class="cls-12" d="M284.405,322.672c.488-.26,14-5,14-5l-13,7Z" transform="translate(-143.837 -137.624)"/>
        <path id="路径_5376" data-name="路径 5376" class="cls-11" d="M278.77,322.578a5.133,5.133,0,0,0-5,5h10A5.133,5.133,0,0,0,278.77,322.578Z" transform="translate(-140.202 -139.524)"/>
        <path id="路径_5377" data-name="路径 5377" class="cls-11" d="M205.507,353.811c-.1,0,0-14.9,0-34s-.1-35,0-35,0,15.89,0,35S205.6,353.811,205.507,353.811Z" transform="translate(-114.939 -125.684)"/>
        <path id="路径_5378" data-name="路径 5378" class="cls-11" d="M323.977,353.811c-.1,0,0-14.9,0-34s-.1-35,0-35,0,15.89,0,35S324.066,353.811,323.977,353.811Z" transform="translate(-158.409 -125.684)"/>
        <ellipse id="椭圆_141" data-name="椭圆 141" class="cls-11" cx="0.5" cy="1" rx="0.5" ry="1" transform="translate(86.568 167)"/>
        <circle id="椭圆_142" data-name="椭圆 142" class="cls-11" cx="0.5" cy="0.5" r="0.5" transform="translate(86.568 181.04)"/>
        <circle id="椭圆_143" data-name="椭圆 143" class="cls-11" cx="0.5" cy="0.5" r="0.5" transform="translate(86.568 195.081)"/>
        <circle id="椭圆_144" data-name="椭圆 144" class="cls-11" cx="0.5" cy="0.5" r="0.5" transform="translate(86.568 209.123)"/>
        <circle id="椭圆_145" data-name="椭圆 145" class="cls-11" cx="0.5" cy="0.5" r="0.5" transform="translate(86.568 223.164)"/>
        <circle id="椭圆_146" data-name="椭圆 146" class="cls-11" cx="1" cy="1" r="1" transform="translate(168.568 167)"/>
        <ellipse id="椭圆_147" data-name="椭圆 147" class="cls-11" cx="1" cy="0.5" rx="1" ry="0.5" transform="translate(168.568 181.04)"/>
        <ellipse id="椭圆_148" data-name="椭圆 148" class="cls-11" cx="1" cy="0.5" rx="1" ry="0.5" transform="translate(168.568 195.081)"/>
        <ellipse id="椭圆_149" data-name="椭圆 149" class="cls-11" cx="1" cy="0.5" rx="1" ry="0.5" transform="translate(168.568 209.123)"/>
        <ellipse id="椭圆_150" data-name="椭圆 150" class="cls-11" cx="1" cy="0.5" rx="1" ry="0.5" transform="translate(168.568 223.164)"/>
        <rect id="矩形_2407" data-name="矩形 2407" class="cls-10" width="33" height="8" transform="translate(108.568 150.962)"/>
        <path id="路径_5379" data-name="路径 5379" class="cls-11" d="M237.437,280.308a23.89,23.89,0,0,1,0-4,23.884,23.884,0,0,1,0-4c.163,1.221,1.053,2.769,1,4C238.49,277.541,237.6,279.085,237.437,280.308Z" transform="translate(-126.868 -121.346)"/>
        <path id="路径_5380" data-name="路径 5380" class="cls-11" d="M243.351,280.308a24.733,24.733,0,0,1,0-4,24.7,24.7,0,0,1,0-4,23.882,23.882,0,0,1,0,4A23.892,23.892,0,0,1,243.351,280.308Z" transform="translate(-128.783 -121.346)"/>
        <path id="路径_5381" data-name="路径 5381" class="cls-11" d="M248.271,280.308a24.731,24.731,0,0,1,0-4,24.7,24.7,0,0,1,0-4,24.7,24.7,0,0,1,0,4A24.731,24.731,0,0,1,248.271,280.308Z" transform="translate(-130.703 -121.346)"/>
        <path id="路径_5382" data-name="路径 5382" class="cls-11" d="M253.189,280.308a23.89,23.89,0,0,1,0-4,23.881,23.881,0,0,1,0-4c.163,1.221,1.053,2.769,1,4C254.243,277.541,253.352,279.085,253.189,280.308Z" transform="translate(-132.622 -121.346)"/>
        <path id="路径_5383" data-name="路径 5383" class="cls-11" d="M259.118,280.308a24.731,24.731,0,0,1,0-4,24.7,24.7,0,0,1,0-4,23.884,23.884,0,0,1,0,4A23.89,23.89,0,0,1,259.118,280.308Z" transform="translate(-134.551 -121.346)"/>
        <path id="路径_5384" data-name="路径 5384" class="cls-11" d="M264.028,280.308a24.731,24.731,0,0,1,0-4,24.7,24.7,0,0,1,0-4,24.7,24.7,0,0,1,0,4A24.731,24.731,0,0,1,264.028,280.308Z" transform="translate(-136.46 -121.346)"/>
        <path id="路径_5385" data-name="路径 5385" class="cls-11" d="M268.947,280.308a23.894,23.894,0,0,1,0-4,23.881,23.881,0,0,1,0-4c.163,1.221,1.053,2.769,1,4C270,277.541,269.11,279.085,268.947,280.308Z" transform="translate(-138.379 -121.346)"/>
        <path id="路径_5386" data-name="路径 5386" class="cls-11" d="M274.864,280.308a24.731,24.731,0,0,1,0-4,24.7,24.7,0,0,1,0-4,23.881,23.881,0,0,1,0,4A23.887,23.887,0,0,1,274.864,280.308Z" transform="translate(-140.297 -121.346)"/>
        <path id="路径_5387" data-name="路径 5387" class="cls-11" d="M279.8,280.308a24.738,24.738,0,0,1,0-4,24.7,24.7,0,0,1,0-4,24.7,24.7,0,0,1,0,4A24.724,24.724,0,0,1,279.8,280.308Z" transform="translate(-142.231 -121.346)"/>
        <g id="组_3495" data-name="组 3495" class="cls-14" transform="translate(179.568 175.043)">
          <path id="路径_5388" data-name="路径 5388" d="M345.929,310.108c.786,3.97,1.22,8.03,2,12a12.858,12.858,0,0,1-2,0v-12" transform="translate(-345.929 -310.108)"/>
        </g>
        <path id="路径_5389" data-name="路径 5389" class="cls-13" d="M191.311,295.852c.089,0,.222,12.393,0,27s.1,26,0,26-.216-11.387,0-26S191.215,295.852,191.311,295.852Z" transform="translate(-109.742 -129.744)"/>
        <path id="路径_5390" data-name="路径 5390" class="cls-13" d="M213.63,367.1c-.1,0,0-5.725,0-13s-.1-14,0-14,0,6.725,0,14S213.7,367.1,213.63,367.1Z" transform="translate(-118.063 -145.958)"/>
        <path id="路径_5391" data-name="路径 5391" class="cls-13" d="M274.193,287.7c0,.1-14.07,0-32,0s-32,.1-32,0,14.064,0,32,0S274.193,287.607,274.193,287.7Z" transform="translate(-116.625 -126.717)"/>
      </g>
    </g>
    <path id="路径_5181" data-name="路径 5181" class="cls-11" d="M253.642,53.952s0-.349.038-1.027a9.317,9.317,0,0,1,.812-2.9,9.164,9.164,0,0,1,1.167-1.9,9.875,9.875,0,0,1,1.979-1.827,9.292,9.292,0,0,1,2.854-1.3,12.875,12.875,0,0,1,3.552-.317l42.647-.063h61.021a6.742,6.742,0,0,1,1.129.063,8.486,8.486,0,0,1,1.123.2,9.362,9.362,0,0,1,6.615,5.879,9.56,9.56,0,0,1,.539,2.271c.051.786.051,1.554.044,2.328v51.031a9.7,9.7,0,0,1-.381,2.537,9.33,9.33,0,0,1-2.765,4.345,8.657,8.657,0,0,1-2.169,1.452,9.273,9.273,0,0,1-2.5.8,13.033,13.033,0,0,1-2.48.127h-2.442l-4.871-.051-9.641-.089-18.869-.184-35.778-.349-32.537-.323a9.368,9.368,0,0,1-6.812-3.057,9.514,9.514,0,0,1-2.448-6.793q0-7.148,0-13.744l.152.152H234.38l.222-.222,18.964-18.958v.063c0-5.873.032-10.4.038-13.452v0c0,3.057,0,7.579.044,13.452h0l-18.9,19.027-.1-.222H253.8v13.9a9.178,9.178,0,0,0,2.372,6.564,9.025,9.025,0,0,0,6.564,2.937l32.537.292,35.771.323,18.875.178,9.641.089,4.865.044h2.448a12.166,12.166,0,0,0,2.41-.127,9.019,9.019,0,0,0,7.1-6.3,9.151,9.151,0,0,0,.368-2.448c0-.844,0-1.687,0-2.537V55.316c0-.774,0-1.541-.051-2.283a9.513,9.513,0,0,0-.507-2.182,8.987,8.987,0,0,0-6.342-5.638,18.565,18.565,0,0,0-4.37-.26H306.665l-42.621-.1a12.577,12.577,0,0,0-3.52.3,9.152,9.152,0,0,0-2.816,1.268,9.659,9.659,0,0,0-1.966,1.789,8.911,8.911,0,0,0-1.173,1.865A9.768,9.768,0,0,0,253.642,53.952Z" transform="translate(852.002 232.479)"/>
    <g id="组_3506" data-name="组 3506">
      <path id="路径_5180" data-name="路径 5180" class="cls-19" d="M253.832,54.044V72.133c-4.1,4.027-18.932,18.983-18.932,18.983h18.932v14.239a9.19,9.19,0,0,0,9.1,9.184l104.955.989a9.178,9.178,0,0,0,9.266-9.184v-52.3a9.184,9.184,0,0,0-9.184-9.184H263.016A9.184,9.184,0,0,0,253.832,54.044Z" transform="translate(852.1 232.388)"/>
      <g id="组_3504" data-name="组 3504" transform="translate(856.73 -80.528)">
        <path id="路径_5392" data-name="路径 5392" class="cls-20" d="M288.8,390.554a5.188,5.188,0,0,1-1.53-3.946c0-.2.02-.54.06-1.02l1.08-8.639a6.955,6.955,0,0,1,7.23-6.421,5.862,5.862,0,0,1,4.185,1.455,5.163,5.163,0,0,1,1.545,3.946c0,.2-.019.54-.059,1.02l-1.05,8.639A6.983,6.983,0,0,1,293,392.009,5.846,5.846,0,0,1,288.8,390.554Zm5.565-3.736a1.864,1.864,0,0,0,.4-.989l1.11-9.121a1.646,1.646,0,0,0-.15-.989.71.71,0,0,0-.66-.361,1.012,1.012,0,0,0-.8.361,1.707,1.707,0,0,0-.375.989l-1.11,9.121a1.424,1.424,0,0,0-.03.33,1.138,1.138,0,0,0,.225.75.761.761,0,0,0,.615.27A.978.978,0,0,0,294.364,386.818Z"/>
        <path id="路径_5393" data-name="路径 5393" class="cls-20" d="M303.184,390.838a4.024,4.024,0,0,1-1.455-3.329q0-.24.06-.841l.66-5.4a5.638,5.638,0,0,1,2.13-3.885,7.389,7.389,0,0,1,4.74-1.455,6.148,6.148,0,0,1,4.11,1.23,4.15,4.15,0,0,1,1.441,3.33c0,.16-.021.42-.06.78l-.661,5.4a5.75,5.75,0,0,1-2.086,3.946,7.385,7.385,0,0,1-4.724,1.395A6.482,6.482,0,0,1,303.184,390.838Zm5.266-3.929a1.306,1.306,0,0,0,.3-.69l.541-4.5a1.227,1.227,0,0,0-.121-.691.485.485,0,0,0-.449-.269.693.693,0,0,0-.555.269,1.343,1.343,0,0,0-.285.691l-.57,4.5a.963.963,0,0,0,.119.69.557.557,0,0,0,.48.27A.721.721,0,0,0,308.45,386.909Z"/>
        <path id="路径_5394" data-name="路径 5394" class="cls-20" d="M328.1,376.918a4.456,4.456,0,0,1,.809,2.88,12.861,12.861,0,0,1-.09,1.471l-.66,5.4a7.6,7.6,0,0,1-1.455,4.005,3.946,3.946,0,0,1-3.2,1.336,2.415,2.415,0,0,1-2.4-1.41c-.04-.06-.08-.085-.12-.076s-.059.056-.059.136l-.75,6.06a.533.533,0,0,1-.165.329.464.464,0,0,1-.316.12h-4.62a.359.359,0,0,1-.285-.12.4.4,0,0,1-.075-.329l2.461-20.1a.517.517,0,0,1,.164-.33.462.462,0,0,1,.315-.121h4.62a.36.36,0,0,1,.285.121.4.4,0,0,1,.076.33l-.061.659v.031c0,.02.01.029.03.029.04,0,.15-.089.33-.27a3.282,3.282,0,0,1,2.55-1.139A3.187,3.187,0,0,1,328.1,376.918Zm-4.8,4.591a.983.983,0,0,0-.135-.54.4.4,0,0,0-.345-.21.682.682,0,0,0-.525.255,1.3,1.3,0,0,0-.285.7l-.54,4.5a1.077,1.077,0,0,0,.091.69.484.484,0,0,0,.449.27.6.6,0,0,0,.495-.256,1.458,1.458,0,0,0,.255-.7l.54-4.5Z"/>
        <path id="路径_5395" data-name="路径 5395" class="cls-20" d="M331.009,390.838a3.754,3.754,0,0,1-1.5-3.119,4.867,4.867,0,0,1,.03-.631l.03-.089a.57.57,0,0,1,.15-.331.45.45,0,0,1,.33-.12h4.38a.441.441,0,0,1,.3.105.291.291,0,0,1,.09.285.8.8,0,0,0,.165.69.726.726,0,0,0,.555.241.6.6,0,0,0,.465-.181.644.644,0,0,0,.165-.449.682.682,0,0,0-.42-.615,7.735,7.735,0,0,0-1.32-.5l-.81-.27a5.643,5.643,0,0,1-2.235-1.455,3.716,3.716,0,0,1-.915-2.654,6.358,6.358,0,0,1,.03-.721,5.452,5.452,0,0,1,2.025-3.719,6.671,6.671,0,0,1,4.305-1.38,5.571,5.571,0,0,1,3.855,1.275,4.342,4.342,0,0,1,1.425,3.4c0,.161-.02.42-.06.781-.04.2-.2.3-.48.3h-4.23a.357.357,0,0,1-.39-.449l.03-.18v-.15c0-.42-.18-.631-.54-.631a.608.608,0,0,0-.525.285,1.022,1.022,0,0,0-.2.585.963.963,0,0,0,.51.855,6.167,6.167,0,0,0,1.35.585,9.806,9.806,0,0,1,2.985,1.471,3.026,3.026,0,0,1,1.125,2.549,4.759,4.759,0,0,1-1.845,3.946,7.451,7.451,0,0,1-4.755,1.455A6.462,6.462,0,0,1,331.009,390.838Z"/>
        <path id="路径_5396" data-name="路径 5396" class="cls-20" d="M344.523,391.079a2.426,2.426,0,0,1-.674-1.77,3.1,3.1,0,0,1,3.12-3.181,2.392,2.392,0,0,1,1.769.661,2.314,2.314,0,0,1,.66,1.71,3.24,3.24,0,0,1-.9,2.325,2.944,2.944,0,0,1-2.22.945A2.349,2.349,0,0,1,344.523,391.079Zm.585-6.871a.362.362,0,0,1-.089-.33l1.019-12.659a.448.448,0,0,1,.481-.45h4.589c.28,0,.4.149.361.45l-2.1,12.659a.513.513,0,0,1-.165.33.5.5,0,0,1-.345.121h-3.45A.4.4,0,0,1,345.108,384.208Z"/>
      </g>
      <g id="组_3505" data-name="组 3505" transform="translate(858.088 -80.528)">
        <path id="路径_5397" data-name="路径 5397" class="cls-21" d="M292.958,412.244H291.6v2.83H290.38v-2.83h-4.468v-.84l4.272-6.6H291.6v6.416h1.359Zm-2.578-1.022V408.07c0-.5.057-1.331.084-1.863h-.056c-.252.5-.532,1.008-.826,1.513l-2.339,3.5Z"/>
        <path id="路径_5398" data-name="路径 5398" class="cls-21" d="M294.088,409.9c0-3.572,1.247-5.3,3.208-5.3s3.193,1.737,3.193,5.3-1.246,5.351-3.193,5.351S294.088,413.477,294.088,409.9Zm5.155,0c0-3-.785-4.259-1.947-4.259s-1.961,1.261-1.961,4.259c0,3.026.784,4.328,1.961,4.328S299.243,412.931,299.243,409.9Z"/>
        <path id="路径_5399" data-name="路径 5399" class="cls-21" d="M308.5,412.244h-1.359v2.83H305.92v-2.83h-4.469v-.84l4.273-6.6h1.414v6.416H308.5Zm-2.577-1.022V408.07c0-.5.056-1.331.084-1.863h-.057c-.252.5-.532,1.008-.826,1.513l-2.339,3.5Z"/>
        <path id="路径_5400" data-name="路径 5400" class="cls-21" d="M313.478,404.806H319.4V405.9H314.78v3.222h3.895v1.106H314.78v3.74h4.778v1.107h-6.08Z"/>
        <path id="路径_5401" data-name="路径 5401" class="cls-21" d="M321.6,407.468h1.049l.113,1.386h.042a2.626,2.626,0,0,1,2.157-1.583,1.62,1.62,0,0,1,.812.168l-.238,1.121a1.8,1.8,0,0,0-.742-.126c-.63,0-1.415.448-1.919,1.751v4.889H321.6Z"/>
        <path id="路径_5402" data-name="路径 5402" class="cls-21" d="M327.03,407.468h1.05l.112,1.386h.042a2.629,2.629,0,0,1,2.158-1.583,1.621,1.621,0,0,1,.812.168l-.238,1.121a1.8,1.8,0,0,0-.742-.126c-.63,0-1.415.448-1.919,1.751v4.889H327.03Z"/>
        <path id="路径_5403" data-name="路径 5403" class="cls-21" d="M331.733,411.278c0-2.536,1.666-4.007,3.53-4.007s3.53,1.471,3.53,4.007c0,2.521-1.667,3.978-3.53,3.978S331.733,413.8,331.733,411.278Zm5.743,0c0-1.751-.9-2.942-2.213-2.942s-2.2,1.191-2.2,2.942.883,2.913,2.2,2.913S337.476,413.029,337.476,411.278Z"/>
        <path id="路径_5404" data-name="路径 5404" class="cls-21" d="M340.792,407.468h1.05l.112,1.386H342a2.627,2.627,0,0,1,2.157-1.583,1.624,1.624,0,0,1,.813.168l-.238,1.121a1.8,1.8,0,0,0-.743-.126c-.63,0-1.415.448-1.919,1.751v4.889h-1.274Z"/>
      </g>
    </g>
  </g>
</svg>
