<svg xmlns="http://www.w3.org/2000/svg" width="1em" height="1em" viewBox="0 0 24 24"><path d="m10.95 13.7l-1.4-1.425Q9.25 12 8.825 12t-.7.275q-.3.3-.313.712q-.012.413.288.713l2.15 2.15q.275.275.7.275q.425 0 .7-.275l4.25-4.25q.275-.275.275-.7q0-.425-.275-.725q-.3-.275-.712-.288q-.413-.012-.713.288ZM12 22q-1.875 0-3.512-.712q-1.638-.713-2.85-1.926q-1.213-1.212-1.926-2.85Q3 14.875 3 13t.712-3.513q.713-1.637 1.926-2.85q1.212-1.212 2.85-1.924Q10.125 4 12 4t3.513.713q1.637.712 2.85 1.924q1.212 1.213 1.925 2.85Q21 11.125 21 13t-.712 3.512q-.713 1.638-1.925 2.85q-1.213 1.213-2.85 1.926Q13.875 22 12 22ZM3.425 7.325q-.275.275-.687.262q-.413-.012-.688-.287q-.275-.275-.275-.7q0-.425.275-.7l2.875-2.875q.275-.275.688-.263q.412.013.687.288q.275.275.275.7q0 .425-.275.7ZM20.55 7.3l-2.875-2.875q-.275-.275-.262-.688q.012-.412.287-.687q.275-.275.7-.275q.425 0 .7.275l2.875 2.875q.275.275.263.687q-.013.413-.288.688q-.275.275-.7.275q-.425 0-.7-.275Z"/></svg>